<svg id="Layer_1" data-name="Layer 1" xmlns="http://www.w3.org/2000/svg" viewBox="0 0 620 110"><defs><style>.cls-1{fill:#fff;}</style></defs><path class="cls-1" d="M87.28,55.84C83,52,82,47.06,82,42.92A17.4,17.4,0,0,1,86.89,31c2.61-2.62,6.59-4.68,13.31-4.68a37.74,37.74,0,0,1,6.33.53c1.66.3,3,.44,4.63.65a.41.41,0,0,1,.39.48c0,.35-.13.88-.22,2.45s-.08,3.84-.13,4.5-.13.91-.39.91-.35-.3-.35-.91a6.06,6.06,0,0,0-1.83-4.46C107.1,29.16,103.74,28,99.9,28c-5.81,0-8.52,1.71-10.05,3.19-3.18,3.06-3.93,6.94-3.93,11.4a15.77,15.77,0,0,0,15.77,16c3.27,0,5.85-.39,7.59-2.18a8.26,8.26,0,0,0,1.62-3.67c.09-.48.17-.65.43-.65s.31.31.31.65a44.36,44.36,0,0,1-1,5.59c-.26.83-.35.92-1.14,1.27a25.19,25.19,0,0,1-7.85,1C95.14,60.55,90.73,58.94,87.28,55.84Z"/><path class="cls-1" d="M117.84,45.84a14.71,14.71,0,0,1,15.28-14.49c8.64,0,15.23,5.15,15.23,13.92,0,8.34-6.15,15.15-15.45,15.15C122.2,60.42,117.84,52.48,117.84,45.84Zm26.41.52c0-8.77-5.41-13.66-11.4-13.66s-10.95,3.75-10.95,12c0,8.55,4.75,14.23,12.09,14.23C136.91,58.94,144.25,57.45,144.25,46.36Z"/><path class="cls-1" d="M161.8,49.25c0,5,.17,7.55.91,8.25s1.58.87,4.59.87c1.92,0,3.67,0,4.63-1.22a5.8,5.8,0,0,0,.83-2.19c0-.34.13-.52.34-.52s.27.13.27.57a28.55,28.55,0,0,1-.53,3.93c-.26.87-.22,1.09-2.31,1.09-3,0-6.24-.22-10.61-.22-1.44,0-2.31.13-3.84.13-.44,0-.7-.09-.7-.35s.13-.26.48-.26a4.15,4.15,0,0,0,1-.09c.74-.13,1-1,1.13-2.05a70.41,70.41,0,0,0,.18-8V42.61c0-5.76,0-6.72-.09-7.9s-.26-2-1.75-2.19a9.14,9.14,0,0,0-1.09,0c-.3,0-.48-.13-.48-.3s.22-.31.66-.31c1.83,0,4.45.13,4.54.13.61,0,3.27-.13,4.49-.13.44,0,.57.13.57.31s-.22.3-.48.3a11.82,11.82,0,0,0-1.18.09c-1.22.17-1.48.87-1.57,2.14s0,2.14,0,7.9Z"/><path class="cls-1" d="M183.36,47.81c0,5.32,1,7.59,2.67,9.08a8.33,8.33,0,0,0,5.76,2,7.38,7.38,0,0,0,6-2.53c1.75-2,2.14-5.32,2.14-9.12V42.61c0-5.72,0-6.72-.09-7.9s-.22-1.92-1.61-2.14a9,9,0,0,0-1.23-.09c-.26,0-.43-.13-.43-.26s.22-.35.61-.35c1.88,0,4.06.13,4.23.13s2.1-.13,3.32-.13c.44,0,.61.09.61.31s-.17.3-.43.3a6.48,6.48,0,0,0-.79,0c-1.22.14-1.4.92-1.48,2.19s-.05,2.18-.05,7.9V46.5c0,3.92-.43,8.64-3.53,11.3a11.35,11.35,0,0,1-8,2.62c-1.23,0-5.33,0-8.17-2.62-1.88-1.74-3.23-4.36-3.23-9.78V42.61c0-5.76,0-6.77-.13-8s-.26-1.92-1.62-2.09a7.5,7.5,0,0,0-1.13-.09c-.31,0-.48-.13-.48-.26s.17-.35.65-.35c1.88,0,4.24.13,4.54.13s2.93-.13,4.11-.13c.48,0,.61.09.61.31s-.31.3-.52.3a7.3,7.3,0,0,0-1,.09c-1.05.13-1.23.87-1.31,2.09s0,2.19,0,8Z"/><path class="cls-1" d="M243.13,55.14c.13,1,.39,3.49,2.09,3.89a15.3,15.3,0,0,0,2.23.3c.17,0,.57,0,.57.26s-.18.35-.66.35c-.78,0-5.5-.17-6.9-.26-1-.09-1.31-.17-1.31-.39s.18-.31.4-.4.35-.61.26-1.22L237.89,39l-9.26,18.77c-.83,1.7-1,2.09-1.35,2.09S226.8,59.46,226,58c-.7-1.27-4.19-8.25-4.45-8.65s-4.54-9-4.89-9.91L215,56.23c0,.61,0,1,0,1.66a1.26,1.26,0,0,0,1.09,1.31,11.29,11.29,0,0,0,1.22.13c.35,0,.44.18.44.26,0,.31-.26.35-.74.35-1.4,0-3.28-.13-3.63-.13s-2.27.13-3.36.13c-.39,0-.65,0-.65-.35,0-.08.17-.26.56-.26a7.08,7.08,0,0,0,.83,0c1.05-.09,1.44-1.14,1.66-2.88l2.93-24c.08-.74.26-1.09.48-1.09s.35.13.65.69l11.7,22.66,11.14-22.61c.21-.48.39-.74.65-.74s.39.39.44,1.09Z"/><path class="cls-1" d="M255.74,42.61c0-5.72,0-6.81-.09-8s-.39-1.79-1.7-2c-.35,0-1-.09-1-.09-.39,0-.56-.13-.56-.3s.26-.31.65-.31c1.83,0,4.45.13,4.54.13,1.05,0,2.49-.13,4.19-.13,6.55,0,7.86,3.62,7.86,5.5a8.33,8.33,0,0,1-3.67,6.72c2.93.88,6.68,3.54,6.68,7.82,0,4.06-3.27,8.12-9.91,8.12-.7,0-1.57-.09-2.7-.09s-2.27-.13-2.45-.13c-1.35,0-2.49.13-3.93.13-.39,0-.61-.09-.61-.26s0-.35.61-.35a2.49,2.49,0,0,0,.79-.09c.74-.13,1-1,1.13-2.09a77.06,77.06,0,0,0,.22-8Zm3.41.79c0,.3.08.34.21.43a11.35,11.35,0,0,0,2.19.13c2.22,0,2.88-.13,3.71-1a5.41,5.41,0,0,0,1.13-3.5c0-3-1.35-6.37-5.06-6.37a7.58,7.58,0,0,0-1.66.22c-.39.08-.52.17-.52.39Zm0,3.75c0,2.75,0,7.55,0,7.9.13,1.92.09,2.49,1.4,3.06a8.69,8.69,0,0,0,3.23.57c1.88,0,5.15-.92,5.15-4.94a9.12,9.12,0,0,0-3.75-7.59,6,6,0,0,0-3-1,15.48,15.48,0,0,0-2.89,0c-.13,0-.21,0-.21.26Z"/><path class="cls-1" d="M281.93,42.61c0-5.76,0-6.81-.08-8s-.35-1.83-1.27-2c-.44-.09-.74-.09-1-.13s-.48-.13-.48-.3.17-.31.65-.31c1.35,0,3.84.13,4,.13s2.71-.13,3.93-.13c.44,0,.66.09.66.31s-.13.26-.48.3-.48,0-.79.09c-1.26.17-1.39.83-1.48,2.09s-.05,2.19-.05,8v6.55a79.56,79.56,0,0,0,.18,8c.17,1.26.35,1.74,1.48,2a10.14,10.14,0,0,0,1.66.17c.4,0,.48.13.48.31s-.17.3-.61.3c-2.22,0-4.76-.13-5-.13s-2.7.13-3.92.13c-.4,0-.7-.09-.7-.3s.17-.31.56-.31a5.05,5.05,0,0,0,1-.13c.74-.17.88-1.05,1-2.1.21-1.57.21-4.67.21-7.94Z"/><path class="cls-1" d="M302.06,49.29a.46.46,0,0,0-.44.35L299.7,55.1a11.21,11.21,0,0,0-.74,3.1c0,.78.48,1.13,1.44,1.13h.31c.39,0,.52.13.52.31s-.35.3-.65.3c-1,0-3-.13-3.45-.13s-2.36.13-4.2.13c-.48,0-.69-.09-.69-.3s.17-.31.52-.31a6.63,6.63,0,0,0,.87,0c1.88-.18,2.62-1.62,3.36-3.45l8.74-23c.48-1.27.61-1.48.91-1.48s.4.17.88,1.39c.61,1.44,6.55,16.68,8.86,22.14,1.44,3.45,2.71,4,3.32,4.23a4.11,4.11,0,0,0,1.48.22c.31,0,.53.09.53.31s-.18.3-.66.3-3.71,0-6.64-.09c-.82,0-1.09-.08-1.09-.3s.13-.26.31-.31.44-.3.17-1l-3.45-8.77a.38.38,0,0,0-.34-.22Zm7.42-1.53c.18,0,.18-.13.13-.26l-3.45-9.65c-.22-.61-.26-.61-.48,0l-3.27,9.65c-.09.17,0,.26.09.26Z"/><path class="cls-1" d="M345.67,45.71c0,6.29,1.4,9,3.27,10.78a8.55,8.55,0,0,0,6.6,2.4,9.15,9.15,0,0,0,6.85-3.14c2-2.49,2.53-6.2,2.53-10.7V39.6c0-6.81,0-8-.08-9.43S364.4,28,363,27.68a8,8,0,0,0-1.49-.13c-.17,0-.34-.09-.34-.26s.21-.35.69-.35c2,0,4.37.13,4.63.13s2.36-.13,3.67-.13c.48,0,.7.08.7.35s-.18.26-.35.26a6.1,6.1,0,0,0-1.09.13c-1.18.26-1.53,1-1.62,2.49s-.09,2.62-.09,9.43v4.67c0,4.71-.52,9.95-4,13a12.78,12.78,0,0,1-9,3.23c-1.48,0-5.89-.17-9-3.1-2.14-2.05-3.8-5.1-3.8-11.48V39.6c0-6.81,0-8-.09-9.43s-.43-2.19-1.87-2.49a8,8,0,0,0-1.49-.13c-.17,0-.35-.09-.35-.26s.22-.35.7-.35c2,0,4.63.13,5,.13s3-.13,4.32-.13c.49,0,.7.08.7.35s-.17.26-.35.26a6.3,6.3,0,0,0-1.09.13c-1.18.17-1.53,1-1.61,2.49s-.09,2.62-.09,9.43Z"/><path class="cls-1" d="M379.54,33.14c0-1.36.14-1.79.49-1.79s1,.87,1.35,1.17S387.84,39.16,394,45.4c3.41,3.32,7.77,7.82,8.91,8.87l-.48-18.17c0-2.35-.31-3.14-1.49-3.44a10,10,0,0,0-1.7-.18c-.44,0-.52-.17-.52-.35s.35-.26.78-.26c1.88,0,3.71.13,4.11.13s1.79-.13,3.49-.13c.48,0,.61,0,.61.26s-.13.31-.39.35-.61,0-1.09.13c-1,.22-1.31.66-1.31,3.28l-.09,21.91c0,2.19-.09,2.4-.39,2.4s-.75-.3-2.88-2.31c-.18-.09-6.25-6.11-10.05-9.82l-10-10.39L382,54.75c.09,3,.35,4.14,1.44,4.41a7.76,7.76,0,0,0,1.79.17c.35,0,.53.13.53.31s-.22.3-.7.3c-2.36,0-3.93-.13-4.24-.13s-1.92.13-3.79.13c-.4,0-.66,0-.66-.3s.18-.31.61-.31a4.51,4.51,0,0,0,1.36-.17c1-.31,1.17-1.49,1.17-4.68C379.54,33.66,379.59,40.38,379.54,33.14Z"/><path class="cls-1" d="M418.44,42.61c0-5.76,0-6.81-.09-8s-.35-1.83-1.26-2c-.44-.09-.74-.09-1-.13s-.48-.13-.48-.3.18-.31.66-.31c1.35,0,3.84.13,4,.13s2.71-.13,3.93-.13c.44,0,.66.09.66.31s-.14.26-.49.3-.47,0-.78.09c-1.27.17-1.4.83-1.49,2.09s0,2.19,0,8v6.55a79.56,79.56,0,0,0,.18,8c.17,1.26.35,1.74,1.48,2a10,10,0,0,0,1.66.17c.39,0,.48.13.48.31s-.18.3-.61.3c-2.23,0-4.76-.13-5-.13s-2.71.13-3.93.13c-.39,0-.7-.09-.7-.3s.18-.31.57-.31a5.05,5.05,0,0,0,1.05-.13c.74-.17.87-1.05,1-2.1a76.81,76.81,0,0,0,.22-7.94Z"/><path class="cls-1" d="M433.37,35.45c-.87-2.05-1.18-2.58-2.75-2.84a10.75,10.75,0,0,0-1.31-.13c-.35,0-.52-.13-.52-.3s.3-.31.7-.31c2,0,4.54.13,5,.13s2.45-.13,4.06-.13c.53,0,.7.09.7.26s-.17.35-.65.35a3.7,3.7,0,0,0-1.36.22.7.7,0,0,0-.39.74,8.31,8.31,0,0,0,.7,2.18l7.68,19.3c2.19-4.84,7.21-17.51,8-20.13a4.66,4.66,0,0,0,.35-1.44.64.64,0,0,0-.39-.69,4.29,4.29,0,0,0-1.4-.18c-.3,0-.57-.09-.57-.26s.14-.35.66-.35c1.57,0,3.67.13,4.15.13.17,0,1.92-.13,3-.13.44,0,.65.09.65.26s-.17.35-.48.35a3.34,3.34,0,0,0-1.87.44c-.48.35-1,.87-2.06,3.4-.21.53-2.4,5.55-4.36,10-2.32,5.42-4.11,9.52-4.85,11-1.18,2.4-1.31,3.05-1.74,3.05s-.75-.52-1.49-2.44Z"/><path class="cls-1" d="M466.29,42.61c0-5.72,0-6.77-.09-8s-.39-1.83-1.66-2.09a6.42,6.42,0,0,0-1.05-.09c-.3,0-.57-.13-.57-.26s.22-.35.66-.35c.87,0,2.05.09,4.5.13.21,0,8,0,8.86,0a6.41,6.41,0,0,0,1.7-.22,1.28,1.28,0,0,1,.48-.13c.09,0,.18.09.18.3a18.69,18.69,0,0,0-.35,2c-.05.74-.09,1.44-.13,2.27,0,.39-.09.65-.31.65s-.3-.17-.3-.48a4.29,4.29,0,0,0-.31-1.39c-.26-.88-.66-1.18-2.84-1.31-.57,0-4.89-.09-5-.09s-.21.09-.21.35v9.91c0,.26,0,.43.26.43.52,0,5,0,5.89-.13s1.66-.17,2-.65c.18-.26.31-.35.48-.35s.18,0,.18.26-.18,1-.31,2.32-.13,2.09-.17,2.66c0,.35-.14.48-.31.48s-.26-.26-.26-.57a5.45,5.45,0,0,0-.13-1.05c-.18-.56-.44-1.18-2.1-1.31-1-.08-4.54-.17-5.24-.17-.26,0-.3.13-.3.3V49.2c0,1.36-.05,5.2,0,5.94.08,1.62.3,2.44,1.22,2.84a8.39,8.39,0,0,0,3.19.39,13.18,13.18,0,0,0,3.31-.26c1.31-.39,1.62-1.27,2-2.88.09-.44.22-.61.39-.61s.26.39.26.65-.35,3.06-.48,3.8-.48,1-1.92,1c-2.88,0-4.1-.09-5.63-.09s-3.54-.13-5.15-.13c-1,0-1.84.13-2.88.13-.4,0-.61-.09-.61-.3s.17-.31.39-.31a3.11,3.11,0,0,0,.87-.13c.79-.17,1.31-.74,1.4-3.45,0-1.48.09-3.27.09-6.59Z"/><path class="cls-1" d="M490.17,42.61c0-5.76,0-6.81-.09-8s-.39-1.83-1.75-2.1a7.89,7.89,0,0,0-1.05-.08c-.3,0-.48-.09-.48-.26s.13-.31.53-.31c1.87,0,4.54.13,4.63.13.39,0,3.36-.13,4.58-.13,2.44,0,5.11.22,7.16,1.66a6.63,6.63,0,0,1,2.62,5.33c0,2.4-1.18,5.45-4.63,8.25,3.19,3.93,5.81,7.16,8,9.47,2.1,2.14,3.41,2.49,4.63,2.66.31,0,1.22.09,1.36.09.34,0,.48.13.48.31s-.18.3-.79.3h-3.06a9.85,9.85,0,0,1-4-.52c-1.83-.79-3.14-2.75-5.41-5.68-1.71-2.09-3.45-4.45-4.19-5.37a.65.65,0,0,0-.53-.26l-4.49,0c-.18,0-.22,0-.22.22v.61a81.27,81.27,0,0,0,.22,8.25c.13,1.05.26,1.92,1.7,2.09a12.21,12.21,0,0,0,1.26.09c.4,0,.57.13.57.26s-.17.35-.61.35c-2.27,0-4.71-.13-4.89-.13-.7,0-2.62.13-3.8.13-.43,0-.61-.09-.61-.35s.26-.26.52-.26a3.69,3.69,0,0,0,1-.09c.74-.13,1-.61,1.13-1.66.22-1.57.18-5.15.18-8.42Zm3.36,3.1c0,.22,0,.44.22.52a11,11,0,0,0,3.88.57,5.15,5.15,0,0,0,2.93-.65c1.31-.83,2.18-2.75,2.18-5.55,0-4.76-2.53-7.38-6.42-7.38a11.73,11.73,0,0,0-2.53.22.41.41,0,0,0-.26.39Z"/><path class="cls-1" d="M519.85,59.46c-.57-.26-.57-.43-.57-1.48,0-2,.13-3.5.18-4.11,0-.39.13-.61.35-.61s.3.13.3.44a5.5,5.5,0,0,0,.13,1.31c.57,2.84,3.15,3.93,5.68,3.93,3.62,0,5.37-2.49,5.37-4.67,0-2.49-1.14-4-4.32-6.6l-1.75-1.35c-4.19-3.36-5.07-5.67-5.07-8.25,0-4,3.19-6.72,8.08-6.72a15.19,15.19,0,0,1,3.54.35,7.35,7.35,0,0,0,1.48.21c.31,0,.4.09.4.27s-.18,1.7-.18,4.23c0,.65-.09.92-.3.92s-.27-.18-.31-.48a5.85,5.85,0,0,0-.52-2.06c-.22-.39-1.23-2-4.89-2-2.62,0-4.59,1.57-4.59,4.19,0,2.06,1,3.32,4.67,6.07l1,.79c4.54,3.49,5.72,5.81,5.72,8.9a7.66,7.66,0,0,1-3.32,6.2,10.84,10.84,0,0,1-5.9,1.53A12.38,12.38,0,0,1,519.85,59.46Z"/><path class="cls-1" d="M544.25,42.61c0-5.76,0-6.81-.08-8s-.35-1.83-1.27-2c-.44-.09-.74-.09-1-.13s-.49-.13-.49-.3.18-.31.66-.31c1.35,0,3.84.13,4,.13s2.71-.13,3.93-.13c.44,0,.66.09.66.31s-.13.26-.48.3-.48,0-.79.09c-1.27.17-1.4.83-1.48,2.09s0,2.19,0,8v6.55a79.56,79.56,0,0,0,.18,8c.17,1.26.35,1.74,1.48,2a10.14,10.14,0,0,0,1.66.17c.39,0,.48.13.48.31s-.17.3-.61.3c-2.23,0-4.76-.13-5-.13s-2.7.13-3.93.13c-.39,0-.7-.09-.7-.3s.18-.31.57-.31a5.05,5.05,0,0,0,1-.13c.74-.17.87-1.05,1-2.1a76.81,76.81,0,0,0,.22-7.94Z"/><path class="cls-1" d="M570.53,49.16c0,3.36.05,6.46.22,8.08.13,1,.22,1.65,1.31,1.92a8.76,8.76,0,0,0,1.7.17c.35,0,.53.13.53.26s-.13.35-.57.35c-2.23,0-4.8-.13-5-.13s-2.75.13-3.88.13c-.48,0-.66-.09-.66-.3s.14-.31.48-.31a7.63,7.63,0,0,0,1,0c.83-.13,1-.66,1.14-2.14s.17-4.72.17-8V33.57c-1.44,0-3.75,0-5.5,0-2.79,0-3.4.48-4,1.39a6.63,6.63,0,0,0-.66,1.36c-.13.3-.22.35-.39.35s-.22-.18-.22-.4.61-3.14.87-4.32c.13-.52.27-.7.4-.7.3,0,1.13.4,1.92.48,1.53.18,2.75.22,2.79.22h14.32a19,19,0,0,0,3.15-.22,4.92,4.92,0,0,1,.82-.17c.18,0,.27.22.27.39,0,1.22-.09,4.1-.09,4.45s-.18.53-.31.53-.3-.18-.3-.53a4.35,4.35,0,0,0,0-.61c-.17-1.74-.74-2.18-5.15-2.22-1.66,0-3,0-4.28,0Z"/><path class="cls-1" d="M597,50.42a6.59,6.59,0,0,0-1-4c-.26-.48-5.33-8.73-6.68-10.61a11.37,11.37,0,0,0-2.23-2.66,3.42,3.42,0,0,0-2-.66c-.26,0-.48-.13-.48-.35s.18-.26.53-.26c.69,0,4,.13,4.1.13.26,0,1.7-.13,3.32-.13.43,0,.57.13.57.26s-.14.26-.48.35c-.62.13-.7.35-.7.7a3.42,3.42,0,0,0,.56,1.44c.57,1.09,6.34,10.35,7,11.44.7-1.53,5.59-9.52,6.2-10.61.83-1.44,1-1.83,1-2.31s-.52-.57-1-.66-.48-.17-.48-.35.09-.26.52-.26c1,0,2,.13,2.67.13s3.1-.13,3.84-.13c.39,0,.52.13.52.26s-.22.35-.52.35a3.71,3.71,0,0,0-2.18.57,6,6,0,0,0-1.62,1.79A113.8,113.8,0,0,0,601.05,47a8.12,8.12,0,0,0-.44,3.44v3.19c0,.31,0,1.92.09,3.49.09,1,.17,1.79,1.53,2.06a8.45,8.45,0,0,0,1.61.17c.35,0,.48.13.48.26s-.13.35-.52.35c-2.18,0-4.89-.13-5-.13s-2.71.13-3.93.13c-.44,0-.61-.13-.61-.35s.13-.26.43-.26a4.59,4.59,0,0,0,1.1-.13c.74-.13,1-1.05,1.13-2.1.13-1.57.13-3.14.13-3.49Z"/><path class="cls-1" d="M87.07,89.08c0-3.6,0-4.26-.06-5s-.21-1.15-.79-1.26c-.27,0-.46,0-.63-.08s-.3-.08-.3-.19.11-.19.41-.19c.85,0,2.4.08,2.49.08s1.69-.08,2.45-.08c.28,0,.41,0,.41.19s-.08.16-.3.19-.3,0-.49,0c-.79.11-.87.52-.93,1.31s0,1.37,0,5v4.09c0,2.1,0,4,.1,5,.11.79.22,1.1.93,1.26a6.62,6.62,0,0,0,1,.11c.24,0,.3.08.3.19s-.11.19-.38.19c-1.39,0-3-.08-3.11-.08s-1.69.08-2.46.08c-.24,0-.44,0-.44-.19s.11-.19.36-.19a3.46,3.46,0,0,0,.65-.08c.47-.11.55-.66.63-1.31a47.33,47.33,0,0,0,.14-5Z"/><path class="cls-1" d="M98,83.16c0-.85.08-1.12.3-1.12s.66.55.85.74,4,4.14,7.85,8c2.13,2.08,4.86,4.89,5.57,5.54L112.25,85c0-1.47-.19-2-.93-2.15a7.05,7.05,0,0,0-1.06-.11c-.27,0-.33-.11-.33-.22s.22-.16.49-.16c1.18,0,2.32.08,2.57.08s1.12-.08,2.18-.08c.3,0,.38,0,.38.16s-.08.19-.24.22-.39,0-.69.08c-.62.14-.81.41-.81,2l-.06,13.69c0,1.37,0,1.5-.24,1.5s-.47-.19-1.81-1.44c-.1-.06-3.9-3.82-6.27-6.14L99.18,86l.36,10.66c0,1.89.21,2.6.9,2.76a4.66,4.66,0,0,0,1.12.11c.21,0,.32.08.32.19s-.13.19-.43.19c-1.48,0-2.46-.08-2.65-.08s-1.2.08-2.37.08c-.25,0-.41,0-.41-.19s.11-.19.38-.19a2.66,2.66,0,0,0,.84-.11c.61-.19.74-.93.74-2.92C98,83.49,98,87.69,98,83.16Z"/><path class="cls-1" d="M137.71,93.17c0,2.1,0,4,.13,5,.09.65.14,1,.82,1.2a5.62,5.62,0,0,0,1.07.11c.21,0,.32.08.32.16s-.08.22-.35.22c-1.39,0-3-.08-3.11-.08s-1.72.08-2.43.08c-.3,0-.41,0-.41-.19s.08-.19.3-.19a4,4,0,0,0,.6,0c.52-.08.6-.41.71-1.34s.11-2.94.11-5V83.43c-.9,0-2.35,0-3.44,0-1.74,0-2.13.3-2.51.87a4.86,4.86,0,0,0-.41.85c-.08.19-.13.22-.24.22s-.14-.11-.14-.25.38-2,.55-2.7c.08-.33.16-.44.24-.44s.71.25,1.2.3c1,.11,1.72.14,1.75.14h8.95a11.82,11.82,0,0,0,2-.14,3.86,3.86,0,0,1,.52-.11c.11,0,.16.14.16.25,0,.76-.05,2.56-.05,2.78s-.11.33-.19.33-.19-.11-.19-.33a2.78,2.78,0,0,0,0-.38c-.11-1.09-.46-1.36-3.22-1.39-1,0-1.88,0-2.67,0Z"/><path class="cls-1" d="M162.18,89.68c.08,0,.16,0,.16-.14v-.49c0-3.6,0-4.23-.05-5s-.16-1.12-1.06-1.29c-.19,0-.47,0-.69,0s-.32-.08-.32-.19.13-.19.38-.19c1.14,0,2.75.08,2.86.08s1.64-.08,2.46-.08c.27,0,.44,0,.44.19s-.09.19-.3.19a4.89,4.89,0,0,0-.55,0c-.74.11-.85.55-.9,1.31s0,1.37,0,5v4.09c0,2.24,0,4,.11,5,.08.66.22,1.2.93,1.29a7.41,7.41,0,0,0,.95.08c.22,0,.36.08.36.19s-.14.19-.41.19c-1.37,0-3-.08-3.08-.08s-1.7.08-2.43.08c-.27,0-.41,0-.41-.22s.08-.16.3-.16a2.25,2.25,0,0,0,.63-.06c.46-.08.6-.68.68-1.31a47.78,47.78,0,0,0,.13-4.91V90.82a.16.16,0,0,0-.16-.16h-9.9c-.08,0-.14,0-.14.16v2.43a45.62,45.62,0,0,0,.14,5c.08.6.22,1.14.93,1.23a8.13,8.13,0,0,0,1,.08c.19,0,.32.08.32.19s-.1.19-.35.19c-1.39,0-3-.08-3.14-.08s-1.74.08-2.45.08c-.28,0-.44,0-.44-.19s.05-.19.3-.19a3,3,0,0,0,.66-.08c.49-.11.6-.63.68-1.23a42.72,42.72,0,0,0,.13-5v-4c0-3.6,0-4.31-.05-5s-.25-1.23-1-1.31a6.51,6.51,0,0,0-.73-.06c-.2,0-.3-.08-.3-.16s.13-.19.4-.19c1.18,0,2.49.08,2.84.08.11,0,1.69-.08,2.46-.08.27,0,.41,0,.41.19s-.11.16-.28.16a2.15,2.15,0,0,0-.54.06c-.68.11-.85.57-.9,1.33s0,1.34,0,4.94v.49c0,.14.08.14.16.14Z"/><path class="cls-1" d="M173.94,89.08c0-3.58,0-4.23-.05-5s-.25-1.14-1-1.31a6,6,0,0,0-.66,0c-.19,0-.35-.08-.35-.16s.14-.22.41-.22c.54,0,1.28,0,2.81.08.14,0,5,0,5.54,0a4.1,4.1,0,0,0,1.06-.13c.17-.06.19-.09.3-.09s.11.06.11.19-.16.55-.22,1.23c0,.47,0,.9-.08,1.42,0,.25-.05.41-.19.41s-.19-.11-.19-.3a2.7,2.7,0,0,0-.19-.87c-.17-.55-.41-.74-1.78-.82-.35,0-3-.06-3.11-.06s-.13.06-.13.22v6.19c0,.17,0,.28.16.28.33,0,3.11,0,3.68-.08s1-.11,1.26-.41.19-.22.3-.22.11,0,.11.16-.11.66-.19,1.45-.08,1.31-.11,1.66-.08.3-.19.3-.17-.16-.17-.35a2.75,2.75,0,0,0-.08-.66c-.11-.35-.27-.73-1.31-.82-.62-.05-2.83-.1-3.27-.1-.16,0-.19.08-.19.19v2c0,.84,0,3.25,0,3.71,0,1,.19,1.53.76,1.77a5.2,5.2,0,0,0,2,.25,8.23,8.23,0,0,0,2.08-.17c.82-.24,1-.79,1.22-1.8.06-.27.14-.38.25-.38s.16.25.16.41-.21,1.91-.3,2.37-.3.6-1.2.6c-1.8,0-2.56,0-3.52,0s-2.21-.08-3.22-.08c-.62,0-1.14.08-1.8.08-.24,0-.38,0-.38-.19s.11-.19.25-.19a2.21,2.21,0,0,0,.54-.08c.49-.11.82-.47.88-2.16,0-.93.05-2.05.05-4.12Z"/><path class="cls-1" d="M199.7,97.73a8.89,8.89,0,0,1-2.92-7,9.12,9.12,0,0,1,2.75-6.3C201,83.05,203.22,82,206.87,82a23.73,23.73,0,0,1,3.6.3,24.07,24.07,0,0,0,2.4.3c.22,0,.25.14.25.27s-.08.47-.14,1.34,0,2.18,0,2.51-.08.52-.22.52-.22-.17-.22-.52a3.19,3.19,0,0,0-1.06-2.37A8.13,8.13,0,0,0,206.6,83c-3,0-4.42.85-5.24,1.59-1.77,1.61-2.18,3.57-2.18,6a8.53,8.53,0,0,0,8.48,8.51c1.86,0,3.22-.19,4.18-1.11a3.78,3.78,0,0,0,.9-2c0-.27.13-.41.3-.41s.13.19.13.38a26,26,0,0,1-.54,3,.88.88,0,0,1-.63.68,13.09,13.09,0,0,1-4.31.55C204.09,100.21,201.63,99.39,199.7,97.73Z"/><path class="cls-1" d="M219.56,89.08c0-3.6,0-4.26-.05-5s-.22-1.15-.8-1.26c-.27,0-.46,0-.62-.08s-.3-.08-.3-.19.11-.19.41-.19c.84,0,2.4.08,2.48.08s1.69-.08,2.45-.08c.28,0,.41,0,.41.19s-.08.16-.3.19-.3,0-.49,0c-.79.11-.87.52-.93,1.31s0,1.37,0,5v4.09a49,49,0,0,0,.11,5c.11.79.21,1.1.92,1.26a6.62,6.62,0,0,0,1,.11c.25,0,.3.08.3.19s-.11.19-.38.19c-1.39,0-3-.08-3.11-.08s-1.69.08-2.46.08c-.24,0-.43,0-.43-.19s.11-.19.35-.19a3.66,3.66,0,0,0,.66-.08c.46-.11.54-.66.62-1.31a47.33,47.33,0,0,0,.14-5Z"/><path class="cls-1" d="M236.26,93.17c0,2.1,0,4,.13,5,.09.65.14,1,.82,1.2a5.62,5.62,0,0,0,1.07.11c.22,0,.32.08.32.16s-.08.22-.35.22c-1.39,0-3-.08-3.11-.08s-1.72.08-2.43.08c-.3,0-.41,0-.41-.19s.08-.19.3-.19a4,4,0,0,0,.6,0c.52-.08.6-.41.71-1.34s.11-2.94.11-5V83.43c-.9,0-2.35,0-3.44,0-1.74,0-2.12.3-2.51.87a4.86,4.86,0,0,0-.41.85c-.08.19-.13.22-.24.22s-.14-.11-.14-.25.38-2,.55-2.7c.08-.33.16-.44.24-.44s.71.25,1.2.3c1,.11,1.72.14,1.75.14H240a11.82,11.82,0,0,0,2-.14,3.86,3.86,0,0,1,.52-.11c.11,0,.17.14.17.25,0,.76-.06,2.56-.06,2.78s-.11.33-.19.33-.19-.11-.19-.33a2.78,2.78,0,0,0,0-.38c-.11-1.09-.46-1.36-3.22-1.39-1,0-1.88,0-2.67,0Z"/><path class="cls-1" d="M253.09,94a4.15,4.15,0,0,0-.6-2.51c-.16-.3-3.33-5.45-4.17-6.63a7.54,7.54,0,0,0-1.39-1.66,2.25,2.25,0,0,0-1.29-.41c-.16,0-.3-.08-.3-.22s.11-.16.33-.16c.44,0,2.51.08,2.57.08s1.06-.08,2.07-.08c.27,0,.35.08.35.16s-.08.16-.3.22c-.38.08-.43.22-.43.44a2.15,2.15,0,0,0,.35.9c.36.68,4,6.46,4.37,7.14.43-1,3.49-5.94,3.87-6.63.52-.9.63-1.14.63-1.44s-.33-.36-.63-.41-.3-.11-.3-.22.06-.16.33-.16c.65,0,1.23.08,1.66.08s1.94-.08,2.4-.08c.25,0,.33.08.33.16s-.13.22-.33.22a2.39,2.39,0,0,0-1.36.35,3.92,3.92,0,0,0-1,1.12,71.55,71.55,0,0,0-4.64,7.59,5.23,5.23,0,0,0-.27,2.15v2c0,.19,0,1.2,0,2.19.06.65.11,1.12,1,1.28a5.46,5.46,0,0,0,1,.11c.22,0,.3.08.3.16s-.08.22-.33.22c-1.36,0-3-.08-3.14-.08s-1.69.08-2.45.08c-.27,0-.38-.08-.38-.22s.08-.16.27-.16a3.16,3.16,0,0,0,.68-.08c.47-.09.66-.66.71-1.31.08-1,.08-2,.08-2.19Z"/><path class="cls-1" d="M274.29,91.1A9.2,9.2,0,0,1,283.84,82c5.4,0,9.52,3.22,9.52,8.7a9.28,9.28,0,0,1-9.66,9.47C277,100.21,274.29,95.24,274.29,91.1Zm16.51.33c0-5.49-3.39-8.54-7.12-8.54s-6.85,2.34-6.85,7.5c0,5.35,3,8.89,7.56,8.89C286.21,99.28,290.8,98.35,290.8,91.43Z"/><path class="cls-1" d="M299.8,89.08c0-3.58,0-4.23-.05-5s-.19-1.2-1-1.28c-.24,0-.44,0-.68,0s-.36-.11-.36-.22.14-.19.41-.19c1,0,1.89.08,2.79.08.41,0,5.37,0,5.94,0a4.16,4.16,0,0,0,1.23-.19,1,1,0,0,1,.28-.08c.08,0,.13.08.08.24a5.8,5.8,0,0,0-.17.85c-.11.71-.08,1.2-.13,1.91,0,.3-.08.41-.19.41s-.2-.14-.22-.33a2.26,2.26,0,0,0-.44-1.36,2.22,2.22,0,0,0-1.53-.38c-1.17,0-2.23-.06-3.43-.06-.2,0-.25.06-.25.27v6.17c0,.14,0,.25.19.25,1.12,0,2.43,0,3.33,0,1.12,0,1.47-.08,1.83-.52.11-.14.16-.22.27-.22s.11.11.11.25-.11.6-.19,1.42a14.65,14.65,0,0,0-.11,1.58c0,.27-.06.41-.19.41s-.17-.17-.19-.41a1.42,1.42,0,0,0-1.42-1.48c-.55-.08-3-.08-3.44-.08-.16,0-.19.06-.19.25V93.2c0,1.83,0,3.46,0,4.55,0,1.37.22,1.56,1,1.67l.84.11c.22,0,.33.08.33.19s-.08.19-.35.19c-1.42,0-2.92-.08-3-.08h-.19c-.52,0-1.64.08-2.21.08-.25,0-.39,0-.39-.19s.06-.16.28-.19.41,0,.57-.06c.63-.08.71-.52.76-1.5s.11-2.62.11-4.8Z"/><path class="cls-1" d="M324.17,83.16c0-.85.08-1.12.3-1.12s.65.55.84.74,4,4.14,7.86,8c2.13,2.08,4.86,4.89,5.57,5.54L338.44,85c0-1.47-.19-2-.93-2.15a7.16,7.16,0,0,0-1.07-.11c-.27,0-.32-.11-.32-.22s.22-.16.49-.16c1.17,0,2.32.08,2.56.08s1.12-.08,2.19-.08c.3,0,.38,0,.38.16s-.08.19-.25.22-.38,0-.68.08c-.63.14-.82.41-.82,2l-.05,13.69c0,1.37-.06,1.5-.25,1.5s-.46-.19-1.8-1.44c-.11-.06-3.9-3.82-6.27-6.14L325.37,86l.35,10.66c.06,1.89.22,2.6.9,2.76a4.7,4.7,0,0,0,1.12.11c.22,0,.33.08.33.19s-.14.19-.44.19c-1.47,0-2.45-.08-2.64-.08s-1.2.08-2.38.08c-.24,0-.41,0-.41-.19s.11-.19.38-.19a2.69,2.69,0,0,0,.85-.11c.6-.19.74-.93.74-2.92C324.17,83.49,324.19,87.69,324.17,83.16Z"/><path class="cls-1" d="M348.75,89.08c0-3.58,0-4.23-.05-5s-.25-1.14-1-1.31a6.14,6.14,0,0,0-.66,0c-.19,0-.35-.08-.35-.16s.14-.22.41-.22c.54,0,1.28,0,2.81.08.13,0,5,0,5.54,0a4.1,4.1,0,0,0,1.06-.13.75.75,0,0,1,.3-.09c.06,0,.11.06.11.19s-.16.55-.22,1.23c0,.47-.05.9-.08,1.42,0,.25-.05.41-.19.41s-.19-.11-.19-.3a2.7,2.7,0,0,0-.19-.87c-.17-.55-.41-.74-1.78-.82-.35,0-3.05-.06-3.11-.06s-.13.06-.13.22v6.19c0,.17,0,.28.16.28.33,0,3.11,0,3.68-.08s1-.11,1.26-.41.19-.22.3-.22.11,0,.11.16-.11.66-.19,1.45-.08,1.31-.11,1.66-.08.3-.19.3-.17-.16-.17-.35a2.75,2.75,0,0,0-.08-.66c-.11-.35-.27-.73-1.31-.82-.63-.05-2.84-.1-3.27-.1-.17,0-.19.08-.19.19v2c0,.84,0,3.25,0,3.71.05,1,.19,1.53.76,1.77a5.16,5.16,0,0,0,2,.25,8.27,8.27,0,0,0,2.08-.17c.81-.24,1-.79,1.22-1.8.06-.27.14-.38.25-.38s.16.25.16.41-.21,1.91-.3,2.37-.3.6-1.2.6c-1.8,0-2.56,0-3.52,0s-2.21-.08-3.22-.08c-.62,0-1.14.08-1.8.08-.24,0-.38,0-.38-.19s.11-.19.25-.19a2.21,2.21,0,0,0,.54-.08c.49-.11.82-.47.88-2.16,0-.93.05-2.05.05-4.12Z"/><path class="cls-1" d="M362.56,84.69c-.39-1.2-.58-1.61-1.34-1.83a4.8,4.8,0,0,0-1-.11c-.14,0-.33-.06-.33-.22s.14-.16.41-.16c1.42,0,2.67.08,2.94.08s1.4-.08,2.68-.08c.33,0,.38.11.38.19s-.16.22-.38.22a2.68,2.68,0,0,0-.87.11c-.25.08-.28.3-.28.57a17.39,17.39,0,0,0,.47,2.1c.35,1.47,2.7,9.58,3.11,10.89l5-12.83c.39-1,.52-1.17.66-1.17s.33.33.65,1.2l4.83,12.82c.66-2.23,2.95-9.16,3.69-11.87a3.68,3.68,0,0,0,.21-1.14c0-.41-.13-.71-1.31-.71-.24,0-.35-.11-.35-.22s.11-.16.41-.16c1,0,2.1.08,2.29.08s1.5-.08,2.24-.08c.22,0,.33.08.33.16s-.14.22-.36.22a5.75,5.75,0,0,0-.71.08c-.82.19-1.09,1.34-1.53,2.57-1.06,2.94-3.49,10.25-4.31,12.52-.71,1.91-.9,2.29-1.11,2.29s-.44-.38-.8-1.39l-4.69-12.44c-.87,2.13-4.17,10.37-5,12.44-.41,1.06-.6,1.39-.85,1.39s-.41-.35-.95-2.07Z"/><path class="cls-1" d="M404.27,94a4.15,4.15,0,0,0-.6-2.51c-.16-.3-3.33-5.45-4.17-6.63a7.54,7.54,0,0,0-1.39-1.66,2.23,2.23,0,0,0-1.29-.41c-.16,0-.3-.08-.3-.22s.11-.16.33-.16c.44,0,2.51.08,2.57.08s1.06-.08,2.07-.08c.27,0,.35.08.35.16s-.08.16-.3.22c-.38.08-.43.22-.43.44a2.15,2.15,0,0,0,.35.9c.36.68,4,6.46,4.37,7.14.44-1,3.49-5.94,3.87-6.63.52-.9.63-1.14.63-1.44s-.33-.36-.63-.41-.3-.11-.3-.22.06-.16.33-.16c.65,0,1.23.08,1.66.08s1.94-.08,2.4-.08c.25,0,.33.08.33.16s-.13.22-.33.22a2.39,2.39,0,0,0-1.36.35,3.92,3.92,0,0,0-1,1.12,71.55,71.55,0,0,0-4.64,7.59,5.23,5.23,0,0,0-.27,2.15v2c0,.19,0,1.2.05,2.19.06.65.11,1.12,1,1.28a5.46,5.46,0,0,0,1,.11c.22,0,.3.08.3.16s-.08.22-.33.22c-1.36,0-3.05-.08-3.14-.08s-1.69.08-2.45.08c-.27,0-.38-.08-.38-.22s.08-.16.27-.16a3.16,3.16,0,0,0,.68-.08c.47-.09.66-.66.71-1.31.08-1,.08-2,.08-2.19Z"/><path class="cls-1" d="M415.65,91.1A9.2,9.2,0,0,1,425.2,82c5.4,0,9.52,3.22,9.52,8.7a9.28,9.28,0,0,1-9.66,9.47C418.38,100.21,415.65,95.24,415.65,91.1Zm16.51.33c0-5.49-3.39-8.54-7.12-8.54s-6.85,2.34-6.85,7.5c0,5.35,3,8.89,7.56,8.89C427.57,99.28,432.16,98.35,432.16,91.43Z"/><path class="cls-1" d="M441.19,89.08c0-3.6,0-4.26-.06-5s-.24-1.15-1.09-1.31a4,4,0,0,0-.65-.06c-.19,0-.3,0-.3-.16s.08-.19.32-.19c1.18,0,2.84.08,2.9.08.24,0,2.1-.08,2.86-.08a7.74,7.74,0,0,1,4.48,1,4.16,4.16,0,0,1,1.63,3.33,6.79,6.79,0,0,1-2.89,5.16c2,2.45,3.63,4.47,5,5.92a4.56,4.56,0,0,0,2.89,1.66c.19,0,.77.06.85.06s.3.08.3.19-.11.19-.49.19h-1.91a6,6,0,0,1-2.48-.33c-1.15-.49-2-1.72-3.39-3.54-1.06-1.31-2.15-2.79-2.62-3.36a.38.38,0,0,0-.32-.16l-2.81,0c-.11,0-.14,0-.14.14V93a49.75,49.75,0,0,0,.14,5.15c.08.66.16,1.2,1.06,1.31.27,0,.57.06.79.06s.36.08.36.16-.11.22-.39.22c-1.41,0-2.94-.08-3.05-.08-.44,0-1.64.08-2.38.08-.27,0-.38,0-.38-.22s.17-.16.33-.16a2.14,2.14,0,0,0,.6-.06c.46-.08.63-.38.71-1,.14-1,.11-3.22.11-5.27Zm2.1,1.94a.33.33,0,0,0,.14.32,6.93,6.93,0,0,0,2.42.36,3.21,3.21,0,0,0,1.83-.41c.82-.52,1.37-1.72,1.37-3.47,0-3-1.59-4.61-4-4.61a7.45,7.45,0,0,0-1.59.14.25.25,0,0,0-.16.24Z"/><path class="cls-1" d="M462.06,90.36c1.26-1.12,4.23-4,5.46-5.29s1.42-1.58,1.42-1.88-.11-.33-.44-.44-.3-.11-.3-.22.05-.16.27-.16,1,.08,1.86.08,2.32-.08,2.67-.08.44,0,.44.16-.08.19-.3.22a5.21,5.21,0,0,0-1.34.27c-.65.22-1,.52-2.43,1.8-2,1.8-4.36,4.12-5.56,5.21,1.47,1.53,5.89,5.9,7,6.93,1.91,1.75,2.83,2.24,3.93,2.49.3,0,.16,0,.62.08.25,0,.38.08.38.22s-.13.16-.43.16h-1.77c-2.13,0-2.68-.25-3.77-1A80.12,80.12,0,0,1,462.06,91v2.15a49,49,0,0,0,.11,5c.11.79.22,1.1.93,1.26a6.53,6.53,0,0,0,1,.11c.25,0,.31.08.31.19s-.11.19-.39.19c-1.39,0-3-.08-3.11-.08s-1.69.08-2.45.08c-.25,0-.44,0-.44-.19s.11-.19.36-.19a3.66,3.66,0,0,0,.65-.08c.46-.11.55-.66.63-1.31.13-1,.13-2.92.13-5V89.08c0-3.6,0-4.26-.05-5s-.22-1.15-.79-1.26c-.27,0-.47,0-.63-.08s-.3-.08-.3-.19.11-.19.41-.19c.85,0,2.4.08,2.48.08s1.69-.08,2.46-.08c.27,0,.41,0,.41.19s-.08.16-.3.19-.3,0-.49,0c-.79.11-.88.52-.93,1.31s0,1.37,0,5Z"/><path class="cls-1" d="M64.62,30.51a7.57,7.57,0,0,0-7-6.3c-6.26-.5-11.67,2.85-17.76,3.92-.48.09-1.14-.95-1.73-1.54a4.76,4.76,0,0,0-.83-8.09,7.37,7.37,0,0,1,0-2.77c.27-.22,2.35.18,2.65-.08a6.3,6.3,0,0,0,0-3c-.19-.24-2.53,0-2.67-.15s.07-2.4-.15-2.58A3,3,0,0,0,36,9.79a3,3,0,0,0-1.18.14c-.22.18,0,2.42-.15,2.58s-2.48-.09-2.67.15a6.18,6.18,0,0,0,0,3c.29.26,2.38-.14,2.64.08a7.37,7.37,0,0,1,0,2.77,4.76,4.76,0,0,0-.83,8.09c-.59.59-1.25,1.63-1.73,1.54C26,27.06,20.63,23.71,14.36,24.21a7.57,7.57,0,0,0-7,6.3c-1.09,6.39,3.5,11.3,5.73,16.72a14.88,14.88,0,0,1,1.21,6H57.69a14.71,14.71,0,0,1,1.21-6C61.13,41.81,65.72,36.9,64.62,30.51ZM33.4,44.66c-.56,3.2-2.34,5.24-3.82,5.25a3.61,3.61,0,0,1-2.47-1c-1-.86-1.77-2.26-1.51-3.09.21-.28,2.84.12,3-.14A5,5,0,0,0,28,43.12c-.29-.26-2.67.09-3-.17s-.61-2.8-.93-3c0,0-2.52-.38-2.7,0s.85,2.48.67,2.84-3.5-.32-3.56.06A5.65,5.65,0,0,0,19,45.39a15.7,15.7,0,0,0,3.43.3,3.13,3.13,0,0,1,.81,2.51c0,1.3-1,2-2.61,1.52-3-.84-6.73-7.36-9-11.87-1.62-3.32-2.6-8.75,1.66-10.37,2.61-1,5.33-.43,8.13.4s6.8,2,9.08,3.46c.56.35-.67.07,1.35,4.55C32.85,38,33.8,42.42,33.4,44.66Zm26.9-6.81c-2.21,4.51-5.94,11-8.94,11.87-1.61.45-2.62-.22-2.62-1.52a3.1,3.1,0,0,1,.82-2.51,15.61,15.61,0,0,0,3.42-.3,5.65,5.65,0,0,0,.51-2.51c-.06-.38-3.38.3-3.56-.06s.86-2.48.67-2.84-2.69,0-2.69,0c-.33.15-.62,2.69-.94,3s-2.69-.09-3,.17a5.14,5.14,0,0,0-.62,2.58c.19.26,2.82-.14,3,.14.25.83-.54,2.23-1.52,3.09a3.6,3.6,0,0,1-2.46,1c-1.48,0-3.27-2-3.83-5.25-.39-2.24.55-6.69,1.49-8.77,2-4.48.8-4.2,1.36-4.55,2.28-1.42,6.14-2.59,9.07-3.46s5.53-1.4,8.13-.4C62.91,29.1,61.93,34.53,60.3,37.85Z"/><polygon class="cls-1" points="36.24 56.19 35.75 56.19 13.82 56.19 13.82 59.96 35.75 59.96 36.24 59.96 58.17 59.96 58.17 56.19 36.24 56.19"/></svg>