<svg id="Layer_1" data-name="Layer 1" xmlns="http://www.w3.org/2000/svg" viewBox="0 0 460 50"><defs><style>.cls-1{fill:#fff;}</style></defs><path class="cls-1" d="M257.12,18.19c0-6.87,0-8.1-.09-9.51s-.44-2.2-1.89-2.5a8.12,8.12,0,0,0-1.5-.14c-.18,0-.35-.08-.35-.26s.22-.35.7-.35c2,0,4.62.13,5,.13,1,0,3.52-.13,5.54-.13,5.5,0,7.48,1.85,8.18,2.51a7.62,7.62,0,0,1,2.21,5.23c0,6.25-4.58,10.48-10.83,10.48a5.68,5.68,0,0,1-.92,0c-.22,0-.49-.09-.49-.31s.27-.39,1.19-.39a7.31,7.31,0,0,0,7.61-7.17A9.33,9.33,0,0,0,269,9a7.63,7.63,0,0,0-6-2.2,5.53,5.53,0,0,0-1.89.26c-.27.09-.36.4-.36.84V25.93c0,4.23,0,7.71.23,9.55.13,1.28.39,2.25,1.71,2.42a19,19,0,0,0,2,.18c.27,0,.35.13.35.26s-.22.36-.7.36c-2.42,0-5.19-.14-5.41-.14s-2.91.14-4.23.14c-.48,0-.7-.09-.7-.36s.09-.26.35-.26a6.65,6.65,0,0,0,1.32-.18c.88-.17,1.1-1.14,1.28-2.42.22-1.84.22-5.32.22-9.55Z"/><path class="cls-1" d="M283.65,21.23c0-5.81,0-6.87-.09-8.06s-.31-1.89-1.58-2.07c-.31,0-1-.08-1.32-.08a.37.37,0,0,1-.31-.31c0-.22.17-.31.62-.31,1.75,0,4.35.09,4.57.09.4,0,3.65-.09,4.84-.09,2.47,0,5.19.22,7.22,1.63a6.55,6.55,0,0,1,2.68,5.1c0,2.78-1.14,5.46-4.75,8.54,3.17,4,5.85,7.35,8.1,9.68,2.07,2.11,3.34,2.47,4.31,2.6a7.26,7.26,0,0,0,1.36.13.35.35,0,0,1,.36.31c0,.22-.22.31-.93.31h-2.42a7.74,7.74,0,0,1-4.13-.75c-1.68-.88-3.09-2.69-5.29-5.5-1.62-2-3.34-4.45-4.18-5.46a.59.59,0,0,0-.52-.22l-4.93-.09c-.18,0-.27.09-.27.31v.88c0,3.61,0,6.51.18,8.05.13,1.1.35,1.81,1.54,2a13.81,13.81,0,0,0,1.72.18.27.27,0,0,1,.3.31c0,.17-.17.31-.61.31-2.11,0-4.58-.14-4.75-.14s-2.65.14-3.83.14c-.4,0-.62-.09-.62-.31a.3.3,0,0,1,.31-.31,5.53,5.53,0,0,0,1.19-.18c.75-.17.83-.88,1-2a76.21,76.21,0,0,0,.22-8.09ZM287,24.39a.56.56,0,0,0,.27.49,13.06,13.06,0,0,0,4.27.57,5,5,0,0,0,2.9-.66c1.32-.88,2.33-2.86,2.33-5.72,0-4.66-2.55-7.35-6.69-7.35a16.71,16.71,0,0,0-2.77.22.49.49,0,0,0-.31.44Z"/><path class="cls-1" d="M324.79,9.87c8.71,0,15.31,5.33,15.31,14,0,8.36-6.2,15.27-15.53,15.27-10.6,0-15.14-8-15.14-14.7A14.82,14.82,0,0,1,324.79,9.87Zm.88,27.77c3.48,0,10.47-1.85,10.47-12.67,0-9-5.45-13.69-11.57-13.69-6.47,0-11.13,4.05-11.13,12.19C313.44,32.18,318.67,37.64,325.67,37.64Z"/><path class="cls-1" d="M357.48,33.81c2.25-5,7.31-17.78,8.14-20.46a6.28,6.28,0,0,0,.36-1.41.79.79,0,0,0-.53-.79,4.56,4.56,0,0,0-1.32-.13c-.22,0-.44-.14-.44-.31s.26-.31.88-.31c1.54,0,3.3.09,3.78.09.22,0,1.89-.09,3-.09.39,0,.61.09.61.26s-.13.36-.44.36a3.57,3.57,0,0,0-1.84.44c-.53.35-1.15.88-2.16,3.43-.44,1.06-2.33,5.54-4.31,10.12-2.38,5.46-4.1,9.51-5,11.35-1,2.25-1.27,2.82-1.67,2.82s-.7-.48-1.45-2.29L345.64,14c-.88-2.12-1.4-2.51-2.68-2.82a7.64,7.64,0,0,0-1.5-.13c-.22,0-.3-.22-.3-.36s.39-.26,1-.26c1.85,0,4.05.09,4.53.09s2.11-.09,3.61-.09c.7,0,1.06.09,1.06.26a.37.37,0,0,1-.4.36,4.83,4.83,0,0,0-1.41.17.63.63,0,0,0-.44.66A15.11,15.11,0,0,0,350.18,15Z"/><path class="cls-1" d="M388.46,9.87c8.71,0,15.31,5.33,15.31,14,0,8.36-6.2,15.27-15.53,15.27-10.61,0-15.14-8-15.14-14.7A14.82,14.82,0,0,1,388.46,9.87Zm.88,27.77c3.48,0,10.47-1.85,10.47-12.67,0-9-5.45-13.69-11.57-13.69-6.47,0-11.13,4.05-11.13,12.19C377.11,32.18,382.34,37.64,389.34,37.64Z"/><path class="cls-1" d="M409.8,38.17c-.53-.27-.58-.4-.58-1.41,0-1.85.18-3.34.22-4,0-.4.09-.62.31-.62s.35.14.35.44a5.34,5.34,0,0,0,.14,1.37c.61,2.73,3.52,3.69,6.11,3.69,3.83,0,5.81-2.15,5.81-5s-1.45-4-4.88-6.51l-1.76-1.32c-4.18-3.13-5.55-5.41-5.55-8,0-4.4,3.48-7,8.58-7a18.77,18.77,0,0,1,4,.44,5.17,5.17,0,0,0,1.36.17c.31,0,.4.05.4.27a38.69,38.69,0,0,0-.18,4c0,.57,0,.84-.3.84s-.31-.18-.36-.49a6.83,6.83,0,0,0-.57-1.85c-.26-.44-1.54-1.85-5-1.85-2.81,0-5.14,1.41-5.14,4,0,2.38,1.18,3.74,5,6.34l1.1.75c4.71,3.21,6.34,5.81,6.34,9a7.29,7.29,0,0,1-3.61,6.38c-1.63,1.06-4,1.32-6.16,1.32A14.18,14.18,0,0,1,409.8,38.17Z"/><path class="cls-1" d="M444.56,27.83c0,3.61,0,6.55.17,8.09.14,1.1.31,1.81,1.5,2a14.57,14.57,0,0,0,1.76.18.28.28,0,0,1,.31.31c0,.17-.18.31-.62.31-2.11,0-4.57-.14-4.79-.14s-2.87.14-4,.14c-.44,0-.62-.09-.62-.31a.27.27,0,0,1,.31-.27,5,5,0,0,0,1.15-.17c.79-.18,1-.93,1.14-2,.18-1.54.18-4.48.18-8.09V12.12l-5.59.08c-2.42.05-3.35.31-3.92,1.19a5.91,5.91,0,0,0-.61,1.19c-.09.31-.22.35-.4.35a.28.28,0,0,1-.26-.3c0-.4.74-3.75.83-4.05s.27-.71.4-.71a13,13,0,0,0,1.71.44c1.1.13,2.6.18,3,.18h14.61a18.68,18.68,0,0,0,2.77-.18c.58-.09.93-.17,1.1-.17s.18.22.18.44c0,1.14-.13,3.83-.13,4.27s-.18.48-.35.48-.27-.13-.31-.66l-.05-.4c-.13-1.14-1-2-4.66-2.07l-4.84-.08Z"/><path class="cls-1" d="M180.66,26.52a4.14,4.14,0,0,1,2,.48A3.33,3.33,0,0,1,184,28.34a3.93,3.93,0,0,1,.47,1.9,8.62,8.62,0,0,1-1.2,4.27,9.11,9.11,0,0,1-3.14,3.37,7.3,7.3,0,0,1-3.93,1.23,3.56,3.56,0,0,1-2.77-1.06,3.73,3.73,0,0,1-1-2.61,8.29,8.29,0,0,1,.73-3.44A10.15,10.15,0,0,1,175,29.21a9.45,9.45,0,0,1,2.59-1.94A6.6,6.6,0,0,1,180.66,26.52Zm-.54.7a1.68,1.68,0,0,0-1.16.41,11,11,0,0,0-2.09,3.88A15.79,15.79,0,0,0,175.71,37a1.43,1.43,0,0,0,.37,1,1.18,1.18,0,0,0,.87.4,1.42,1.42,0,0,0,.91-.32A7.21,7.21,0,0,0,179.28,36a18.32,18.32,0,0,0,1.39-3.65,14.1,14.1,0,0,0,.54-3.66,1.55,1.55,0,0,0-.33-1.06A1,1,0,0,0,180.12,27.22Z"/><path class="cls-1" d="M193,28.44l-1.54,6.09a29.82,29.82,0,0,1-2.11,6.25,7.64,7.64,0,0,1-2.4,2.86,5.51,5.51,0,0,1-3.16.93,2.57,2.57,0,0,1-1.65-.43,1.26,1.26,0,0,1-.53-1,1.22,1.22,0,0,1,.44-.94,1.66,1.66,0,0,1,1.15-.4,1.26,1.26,0,0,1,.91.31,1,1,0,0,1,.31.76.85.85,0,0,1-.2.63c-.13.13-.19.22-.19.27l.06.09a.34.34,0,0,0,.19.07,1,1,0,0,0,.67-.25,3.87,3.87,0,0,0,1-1.51c.16-.4.46-1.47.91-3.2l2.69-10.53h-1.83l.43-1.55a2.83,2.83,0,0,0,1.44-.25,3.07,3.07,0,0,0,.95-1.18,11.25,11.25,0,0,1,3.06-3.84,6,6,0,0,1,3.58-1.16,2.78,2.78,0,0,1,1.84.49,1.55,1.55,0,0,1,.58,1.26,1.5,1.5,0,0,1-.39,1.09,1.24,1.24,0,0,1-1,.4,1.21,1.21,0,0,1-.87-.33,1.08,1.08,0,0,1-.34-.79,1.36,1.36,0,0,1,.22-.7,1.38,1.38,0,0,0,.22-.5.37.37,0,0,0-.1-.24.37.37,0,0,0-.26-.09,2.2,2.2,0,0,0-1.59,1,11.78,11.78,0,0,0-2.17,4.88h1.91l-.46,1.55Z"/><path class="cls-1" d="M210.79,23.31l-1.06,3.58h1.73L211,28.41h-1.7l-2.2,7.65a4.13,4.13,0,0,0-.21,1.08.44.44,0,0,0,.11.29.35.35,0,0,0,.27.13.73.73,0,0,0,.46-.19,7.47,7.47,0,0,0,1.41-1.6l.46.29a6.88,6.88,0,0,1-2,2.32,3.85,3.85,0,0,1-2.15.73,2,2,0,0,1-1.39-.45,1.5,1.5,0,0,1-.5-1.15,7.51,7.51,0,0,1,.35-2L206,28.41H204.2l.26-1A11.67,11.67,0,0,0,207.31,26a18.12,18.12,0,0,0,2.79-2.67Z"/><path class="cls-1" d="M220.1,20.46l-3.43,11.88a43.48,43.48,0,0,1,2.59-3.55,8.23,8.23,0,0,1,2.06-1.8,3.49,3.49,0,0,1,1.65-.47,1.54,1.54,0,0,1,1.16.51,1.89,1.89,0,0,1,.48,1.35,6.52,6.52,0,0,1-.32,1.78l-1.67,5.62a4.38,4.38,0,0,0-.23,1,.3.3,0,0,0,.1.22.29.29,0,0,0,.21.09A.47.47,0,0,0,223,37a4.55,4.55,0,0,0,.9-1.05c.08-.13.21-.31.38-.56l.52.29a8.44,8.44,0,0,1-2.15,2.57,3.42,3.42,0,0,1-1.93.7,1.85,1.85,0,0,1-1.28-.42,1.39,1.39,0,0,1-.46-1,6.35,6.35,0,0,1,.32-1.65l1.63-5.62a3.42,3.42,0,0,0,.16-.84.38.38,0,0,0-.37-.37,2.29,2.29,0,0,0-1.3.79A17.91,17.91,0,0,0,216,34.83l-1.17,3.91h-3.27l4.32-14.89a5.7,5.7,0,0,0,.26-1.36.57.57,0,0,0-.26-.51,1.65,1.65,0,0,0-1-.22l.09-.52,4.39-.78Z"/><path class="cls-1" d="M231.14,33.8a10.52,10.52,0,0,0-.12,1.41,2.17,2.17,0,0,0,.57,1.58,2,2,0,0,0,1.54.6,4.23,4.23,0,0,0,1.85-.45,9.32,9.32,0,0,0,2.15-1.57l.4.36a10.67,10.67,0,0,1-2.95,2.61,6.67,6.67,0,0,1-3.18.77,3.74,3.74,0,0,1-3.05-1,3.81,3.81,0,0,1-.84-2.44,8.51,8.51,0,0,1,1.26-4.32,9.59,9.59,0,0,1,3.43-3.47,8.35,8.35,0,0,1,4.35-1.31,2.4,2.4,0,0,1,1.68.53,1.74,1.74,0,0,1,.57,1.33,3.54,3.54,0,0,1-.56,1.87,6.23,6.23,0,0,1-1.92,2,9.29,9.29,0,0,1-2.6,1.16A15.46,15.46,0,0,1,231.14,33.8Zm.11-.68a6.77,6.77,0,0,0,1.8-.47,4.26,4.26,0,0,0,1.26-.95,6.09,6.09,0,0,0,1.06-1.65,4.55,4.55,0,0,0,.45-1.87.81.81,0,0,0-.21-.58.7.7,0,0,0-.52-.21,2.12,2.12,0,0,0-1.42.89A12.6,12.6,0,0,0,231.25,33.12Z"/><path class="cls-1" d="M22.44,5.81c9.9,0,17.29,6.25,17.29,16.5,0,9.86-6.95,18-17.56,18C10.12,40.31,5.1,30.94,5.1,23,5.1,15.89,10.29,5.81,22.44,5.81Zm.92,32.83c4,0,12.15-2.29,12.15-15.09C35.51,13,29.08,7.31,22.13,7.31c-7.35,0-12.85,4.84-12.85,14.48C9.28,32,15.44,38.64,23.36,38.64Z"/><path class="cls-1" d="M47.91,22.23c0-5.81,0-6.87-.09-8.06s-.3-1.89-1.58-2.07c-.31,0-1-.08-1.32-.08a.38.38,0,0,1-.31-.31c0-.22.18-.31.62-.31,1.76,0,4.18.09,4.4.09.75,0,9.15,0,10,0a8.46,8.46,0,0,0,1.76-.18c.22,0,.4-.22.53-.22s.27.18.27.35-.18.71-.31,1.76c0,.36-.09,2-.18,2.47,0,.18-.18.4-.35.4s-.31-.18-.31-.44a4.06,4.06,0,0,0-.35-1.41,2.91,2.91,0,0,0-2.64-1.1L51.74,13c-.22,0-.31.09-.31.4v10.2c0,.22,0,.36.27.36l5.28,0c.66,0,1.23,0,1.76,0,.92-.09,1.45-.22,1.8-.66.18-.22.35-.4.49-.4s.22.13.22.31a15.19,15.19,0,0,0-.36,2.07c-.08.75-.13,2.24-.13,2.51s-.08.74-.35.74-.26-.17-.26-.35a5.45,5.45,0,0,0-.27-1.36c-.17-.53-.79-1-2-1.19-1-.13-5.54-.09-6.2-.09-.22,0-.27.09-.27.35v3c0,3.69,0,6.64.18,8.09.13,1.1.35,1.81,1.41,2a15.41,15.41,0,0,0,1.76.18.3.3,0,0,1,.31.31c0,.17-.18.31-.62.31-2.16,0-4.66-.14-4.84-.14s-2.64.14-3.83.14c-.4,0-.62-.09-.62-.31a.3.3,0,0,1,.31-.31,9.78,9.78,0,0,0,1.19-.18c.75-.13.84-.88,1-2a76.21,76.21,0,0,0,.22-8.09Z"/><path class="cls-1" d="M71.45,22.23c0-5.81,0-6.87-.09-8.06s-.3-1.89-1.58-2.07c-.31,0-1-.08-1.32-.08a.38.38,0,0,1-.31-.31c0-.22.18-.31.62-.31,1.76,0,4.18.09,4.4.09.75,0,9.15,0,10,0A8.46,8.46,0,0,0,85,11.31c.22,0,.4-.22.53-.22s.26.18.26.35-.17.71-.3,1.76c0,.36-.09,2-.18,2.47,0,.18-.18.4-.35.4s-.31-.18-.31-.44a4.06,4.06,0,0,0-.35-1.41,2.91,2.91,0,0,0-2.64-1.1L75.28,13c-.22,0-.31.09-.31.4v10.2c0,.22,0,.36.27.36l5.28,0c.66,0,1.23,0,1.76,0,.92-.09,1.45-.22,1.8-.66.18-.22.35-.4.49-.4s.22.13.22.31a15.19,15.19,0,0,0-.36,2.07c-.08.75-.13,2.24-.13,2.51s-.09.74-.35.74-.26-.17-.26-.35a5.45,5.45,0,0,0-.27-1.36c-.17-.53-.79-1-2-1.19-1-.13-5.54-.09-6.2-.09-.22,0-.27.09-.27.35v3c0,3.69,0,6.64.18,8.09.13,1.1.35,1.81,1.41,2a15.41,15.41,0,0,0,1.76.18.3.3,0,0,1,.31.31c0,.17-.18.31-.62.31-2.16,0-4.67-.14-4.84-.14s-2.64.14-3.83.14c-.4,0-.62-.09-.62-.31a.3.3,0,0,1,.31-.31,9.78,9.78,0,0,0,1.19-.18c.75-.13.84-.88,1-2a76.21,76.21,0,0,0,.22-8.09Z"/><path class="cls-1" d="M98.51,28.83c0,3.61,0,6.55.18,8.09.13,1.1.26,1.81,1.41,2a15.41,15.41,0,0,0,1.76.18.3.3,0,0,1,.31.31c0,.17-.18.31-.62.31-2.16,0-4.67-.14-4.84-.14s-2.64.14-3.83.14c-.4,0-.62-.09-.62-.31a.3.3,0,0,1,.31-.31,5.44,5.44,0,0,0,1.19-.18c.75-.17.88-.88,1-2,.18-1.54.22-4.48.22-8.09v-6.6c0-5.81,0-6.87-.09-8.06s-.39-1.85-1.23-2A6.66,6.66,0,0,0,92.48,12a.33.33,0,0,1-.3-.31c0-.22.17-.31.61-.31,1.28,0,3.7.09,3.92.09s2.68-.09,3.87-.09c.44,0,.62.09.62.31a.38.38,0,0,1-.31.31,4.73,4.73,0,0,0-1,.08c-1.06.22-1.28.75-1.36,2.07s0,2.25,0,8.06Z"/><path class="cls-1" d="M111.8,36.18a14.06,14.06,0,0,1-4.71-11.09,14.78,14.78,0,0,1,4.36-10.21c2.33-2.25,5.85-4,11.79-4a37.68,37.68,0,0,1,5.63.44,26.53,26.53,0,0,0,4,.57c.39,0,.48.18.48.4s-.09.75-.18,2.11,0,3.3-.08,3.83-.22.79-.45.79-.3-.26-.3-.79a4.88,4.88,0,0,0-1.63-3.74c-1.37-1.14-4.18-2.07-7.61-2.07-5,0-7.35,1.32-8.72,2.6-2.86,2.64-3.47,6-3.47,9.77a13.59,13.59,0,0,0,14,13.55c2.9,0,4.84-.22,6.38-1.76a7,7,0,0,0,1.49-3.12c.09-.4.14-.53.4-.53s.35.26.35.53a40.13,40.13,0,0,1-.92,4.79c-.22.71-.31.84-1,1.1a22.8,22.8,0,0,1-7,.84C118.75,40.18,114.84,38.82,111.8,36.18Z"/><path class="cls-1" d="M142.64,22.23c0-5.81,0-6.87-.08-8.06s-.31-1.89-1.59-2.07c-.31,0-1-.08-1.32-.08a.38.38,0,0,1-.31-.31c0-.22.18-.31.62-.31,1.76,0,4.27.09,4.49.09s8.36,0,9.24,0,1.45-.18,1.76-.22a2.21,2.21,0,0,1,.53-.18c.13,0,.17.18.17.35s-.22.71-.3,1.76c0,.36-.14,2-.22,2.47,0,.18-.18.4-.36.4s-.3-.18-.3-.49a4.29,4.29,0,0,0-.22-1.32c-.27-.62-.66-.88-2.78-1.14-.66-.09-5.15-.14-5.59-.14-.17,0-.22.14-.22.4V23.55c0,.26,0,.39.22.39.49,0,5.59,0,6.47-.09s1.5-.13,1.9-.52.44-.49.57-.49.22.09.22.31-.22.84-.31,2.07c-.09.75-.18,2.15-.18,2.42s-.08.7-.35.7-.26-.13-.26-.35a3.24,3.24,0,0,0-.18-1.23c-.13-.53-.48-1-2-1.15-1.05-.13-5.19-.17-5.85-.17-.22,0-.27.13-.27.26v3.13c0,1.27,0,5.63,0,6.38.09,2.51.8,3,4.62,3a12.79,12.79,0,0,0,3.88-.4,2.84,2.84,0,0,0,1.76-2.59c.09-.44.17-.57.39-.57s.27.3.27.57a31.47,31.47,0,0,1-.53,3.61c-.26,1-.66,1-2.16,1-2.9,0-5.15-.08-6.73-.13s-2.64-.09-3.21-.09c-.09,0-.84,0-1.67,0s-1.63.09-2.25.09c-.39,0-.61-.09-.61-.31a.29.29,0,0,1,.3-.31,9.49,9.49,0,0,0,1.19-.18c.75-.13.84-.88,1-2a76.21,76.21,0,0,0,.22-8.09Z"/></svg>