<svg id="Layer_1" data-name="Layer 1" xmlns="http://www.w3.org/2000/svg" viewBox="0 0 530 110"><defs><style>.cls-1{fill:#fff;}</style></defs><path class="cls-1" d="M87.06,48.86c-4.28-3.87-5.37-8.92-5.37-13.14a17.72,17.72,0,0,1,5-12.14c2.66-2.66,6.7-4.75,13.56-4.75a38.4,38.4,0,0,1,6.43.54,38.32,38.32,0,0,0,4.53.66c.48,0,.57.23.57.49s-.13.88-.22,2.48-.09,3.91-.13,4.58-.14.93-.4.93-.36-.31-.36-.93a6.14,6.14,0,0,0-1.86-4.53c-1.55-1.33-5-2.53-8.88-2.53-5.9,0-8.65,1.73-10.21,3.24-3.24,3.11-4,7-4,11.58a16,16,0,0,0,16,16.25c3.33,0,6-.4,7.72-2.22a8.31,8.31,0,0,0,1.64-3.73c.1-.49.18-.67.45-.67s.31.32.31.67a43.5,43.5,0,0,1-1,5.68c-.26.84-.35.94-1.15,1.29a25.45,25.45,0,0,1-8,1C95.05,53.66,90.56,52,87.06,48.86Z"/><path class="cls-1" d="M131,24c8.78,0,15.44,5.37,15.44,14.16,0,8.43-6.26,15.4-15.66,15.4-10.71,0-15.27-8-15.27-14.82A14.94,14.94,0,0,1,131,24Zm.89,28c3.5,0,10.56-1.87,10.56-12.79,0-9-5.5-13.8-11.67-13.8-6.53,0-11.23,4.09-11.23,12.3,0,8.78,5.28,14.29,12.34,14.29Z"/><path class="cls-1" d="M157.06,42.15c0,5.56.1,7.82.8,8.48s2.15.89,5.19.89c2,0,3.78,0,4.71-1.15a4.7,4.7,0,0,0,.94-2.14c0-.27.17-.49.39-.49s.27.18.27.58a22.9,22.9,0,0,1-.58,3.77c-.26.89-.4,1-2.48,1-2.8,0-5,0-6.79-.13s-3.11-.09-4.29-.09c-.18,0-.84,0-1.6,0s-1.64.1-2.26.1c-.4,0-.62-.1-.62-.32a.3.3,0,0,1,.3-.31h0a6,6,0,0,0,1.2-.17c.75-.18.84-.9,1-2a76.86,76.86,0,0,0,.22-8.17V35.41c0-5.87,0-6.93-.09-8.13s-.31-1.91-1.59-2.08a11.9,11.9,0,0,0-1.34-.1.36.36,0,0,1-.3-.3c0-.23.17-.32.62-.32,1.77,0,4.21.09,4.43.09s3.11-.09,4.29-.09c.4,0,.62.09.62.32s-.18.26-.31.26-.84,0-1.29.09c-1.15.22-1.37.8-1.47,2.15,0,1.19,0,2.26,0,8.12Z"/><path class="cls-1" d="M173.29,35.41c0-5.86,0-6.92-.08-8.12s-.32-1.91-1.6-2.09c-.44-.05-.89-.08-1.33-.09a.36.36,0,0,1-.31-.31c0-.22.17-.31.62-.31,1.77,0,4.12.09,4.48.09s2.8-.09,4-.09c.45,0,.67.09.67.31a.37.37,0,0,1-.36.31,4.49,4.49,0,0,0-1,.09c-1,.18-1.25.85-1.33,2.09s-.1,2.26-.1,8.12v5.28c0,5.46,1.2,7.72,2.86,9.23a7.55,7.55,0,0,0,5.81,2,8,8,0,0,0,6-2.67c1.82-2.14,2.22-5.28,2.22-9.14V35.41c0-5.86,0-6.92-.09-8.12s-.26-1.91-1.55-2.09c-.44-.05-.89-.08-1.33-.09a.33.33,0,0,1-.31-.31c0-.22.18-.31.62-.31,1.73,0,4,.09,4.21.09s2.14-.09,3.29-.09c.45,0,.62.09.62.31a.33.33,0,0,1-.31.31,4.58,4.58,0,0,0-1,.09c-1.06.22-1.28.85-1.37,2.09s0,2.26,0,8.12v4c0,4.08-.53,8.65-3.64,11.32a11.83,11.83,0,0,1-8.16,2.75c-1.29,0-5.37-.09-8.13-2.66-1.9-1.78-3.42-4.4-3.42-9.9Z"/><path class="cls-1" d="M235,48.15c.13,1.33.4,3.37,2,3.91a8.64,8.64,0,0,0,2.53.35.27.27,0,0,1,.3.27c0,.18-.35.35-.79.35-.89,0-5.24-.09-6.66-.22-.93-.09-1.11-.23-1.11-.4a.33.33,0,0,1,.27-.31c.22,0,.26-.62.17-1.33l-1.86-19.09h-.09L220.31,51c-.79,1.64-1,2-1.37,2s-.58-.36-1.34-1.73c-1-1.87-3.57-6.71-4.57-8.75-1.15-2.4-4.28-8.74-5-10.29h-.18l-1.51,17c0,.58,0,1.28,0,1.91a1.05,1.05,0,0,0,.94,1.06,6.32,6.32,0,0,0,1.5.22.34.34,0,0,1,.32.27c0,.27-.28.36-.72.36-1.46,0-3.32-.14-3.63-.14s-2.22.14-3.29.14c-.4,0-.67-.09-.67-.36s.18-.27.4-.27a7.49,7.49,0,0,0,1.16-.13c1.28-.22,1.33-1.6,1.51-3l2.85-24.63c0-.4.22-.66.44-.66a.86.86,0,0,1,.8.57L219.72,48,231.08,24.6c.18-.36.36-.62.62-.62s.5.3.58,1Z"/><path class="cls-1" d="M246.21,35.41c0-5.86,0-6.92-.08-8.12s-.32-2-1.6-2.18c-.45-.05-.89-.08-1.34-.09-.13,0-.31-.08-.31-.22s.18-.31.63-.31c1.77,0,4.28.09,4.52.09.93,0,2.75-.09,4.57-.09,6.53,0,8.21,3.78,8.21,5.78,0,3-1.95,4.83-3.95,6.61,3,.88,6.89,3.57,6.89,7.85s-3.16,8.39-9.81,8.39c-.72,0-2.15,0-3.38-.14L248,52.9c-.09,0-.8,0-1.6,0s-1.73.09-2.35.09c-.4,0-.62-.09-.62-.31s.09-.22.31-.22q.6-.06,1.2-.18c.76-.14.84-1,1-2.08a76.86,76.86,0,0,0,.22-8.17Zm3.37.8c0,.27.09.35.27.4a12,12,0,0,0,2.39.17c2.18,0,3-.08,3.82-1a5.75,5.75,0,0,0,1.51-4c0-2.85-1.59-6.08-5.5-6.08a11.19,11.19,0,0,0-2,.18c-.35.09-.49.18-.49.4Zm0,4.17c0,2.93,0,7.46,0,8,.13,1.83.13,2.27,1.33,2.86a9.5,9.5,0,0,0,3.42.54c2.57,0,5.71-1,5.71-5.82a7.44,7.44,0,0,0-7.24-7.86c-.48-.08-2.43-.08-3-.08-.14,0-.23.08-.23.26Z"/><path class="cls-1" d="M274.33,42.07c0,3.64,0,6.61.18,8.17.14,1.1.27,1.82,1.43,2a17.59,17.59,0,0,0,1.78.18.3.3,0,0,1,.31.29v0c0,.18-.18.31-.63.31-2.17,0-4.7-.13-4.88-.13s-2.66.13-3.85.13c-.4,0-.63-.09-.63-.31a.3.3,0,0,1,.3-.31h0a6,6,0,0,0,1.2-.18c.76-.17.89-.89,1-2,.18-1.56.22-4.53.22-8.17V35.41c0-5.86,0-6.92-.08-8.12s-.4-1.87-1.25-2a6.78,6.78,0,0,0-1.19-.14.33.33,0,0,1-.32-.31c0-.22.18-.31.62-.31,1.29,0,3.73.09,3.95.09s2.71-.09,3.91-.09c.45,0,.62.09.62.31a.37.37,0,0,1-.31.31,4,4,0,0,0-1,.09c-1.06.22-1.28.76-1.38,2.09s0,2.26,0,8.12Z"/><path class="cls-1" d="M294.55,25.25c.49-1.25.67-1.47.93-1.47s.54.54.94,1.38c.71,1.6,7,17.17,9.36,22.9,1.43,3.37,2.48,3.86,3.33,4.12a5.39,5.39,0,0,0,1.55.23c.22,0,.49.09.49.31s-.45.31-.89.31-3.46,0-6.17-.09c-.75,0-1.37,0-1.37-.26s.09-.18.27-.27a.73.73,0,0,0,.39-.94l0-.08-3.51-8.66a.31.31,0,0,0-.36-.22h-9a.41.41,0,0,0-.39.31l-2.22,6a7.84,7.84,0,0,0-.58,2.53c0,.75.67,1,1.33,1H289c.31,0,.4.13.4.31s-.22.31-.58.31c-.93,0-3.06-.13-3.51-.13s-2.35.13-3.95.13c-.48,0-.75-.09-.75-.31a.34.34,0,0,1,.35-.31,11.11,11.11,0,0,0,1.16-.09c1.77-.22,2.53-1.55,3.29-3.46ZM298.9,41c.17,0,.17-.09.13-.27l-3.86-10.34c-.22-.58-.44-.58-.67,0l-3.64,10.34c0,.18,0,.27.14.27Z"/><path class="cls-1" d="M321.39,60.78V16.4h2.4V60.78Z"/><path class="cls-1" d="M342.38,48.86C338.09,45,337,39.94,337,35.72a17.72,17.72,0,0,1,5-12.14c2.66-2.66,6.7-4.75,13.56-4.75a38.4,38.4,0,0,1,6.43.54,38.32,38.32,0,0,0,4.53.66c.49,0,.57.23.57.49s-.13.88-.22,2.48-.09,3.91-.13,4.58-.14.93-.4.93-.35-.31-.35-.93a6.14,6.14,0,0,0-1.87-4.53c-1.55-1.33-5-2.53-8.88-2.53-5.89,0-8.65,1.73-10.21,3.24-3.23,3.11-4,7-4,11.58a16,16,0,0,0,16,16.25c3.33,0,5.95-.4,7.73-2.22a8.53,8.53,0,0,0,1.64-3.73c.09-.49.17-.67.44-.67s.31.32.31.67a45.53,45.53,0,0,1-1,5.68c-.27.84-.36.94-1.16,1.29-1.77.72-5.15,1-8,1C350.36,53.66,345.88,52,342.38,48.86Z"/><path class="cls-1" d="M387,40.16c0,4.28,0,7.77.22,9.63.13,1.29.4,2.27,1.73,2.44.67.09,1.33.15,2,.18.27,0,.35.13.35.27s-.22.35-.71.35c-2.44,0-5.24-.13-5.46-.13s-3,.13-4.35.13c-.49,0-.72-.09-.72-.35s.1-.27.36-.27a7.57,7.57,0,0,0,1.34-.18c.88-.17,1.1-1.15,1.28-2.44.22-1.86.22-5.37.22-9.63V21.38l-6.57.1c-2.75,0-3.81.35-4.52,1.42a8.79,8.79,0,0,0-.76,1.37c-.13.36-.26.45-.44.45s-.22-.13-.22-.4c0-.44.89-4.28,1-4.61s.27-.85.45-.85a8.18,8.18,0,0,0,2,.54c1.29.13,3,.22,3.51.22h16.64a18.47,18.47,0,0,0,3.15-.22c.66-.09,1.06-.23,1.24-.23s.22.27.22.54c0,1.33-.13,4.39-.13,4.88s-.13.58-.31.58-.31-.14-.36-.76l0-.48c-.13-1.34-1.19-2.36-5.45-2.45l-5.6-.09Z"/><path class="cls-1" d="M411.11,40.25c0,6.52.18,9.36,1,10.16s1.86,1,5.33,1c2.34,0,4.28,0,5.36-1.33a6,6,0,0,0,1.15-2.66c.05-.35.14-.57.41-.57s.27.17.27.66a27.69,27.69,0,0,1-.68,4.44c-.3,1-.43,1.19-2.79,1.19-3.2,0-5.5-.08-7.37-.13s-3.24-.13-4.52-.13c-.18,0-.94,0-1.82,0s-1.87.09-2.53.09c-.49,0-.71-.09-.71-.35s.09-.27.35-.27a7.57,7.57,0,0,0,1.34-.18c.88-.17,1.1-1.15,1.28-2.44.22-1.86.22-5.37.22-9.63V32.35c0-6.93,0-8.17-.08-9.59s-.45-2.22-1.92-2.53a7.54,7.54,0,0,0-1.5-.13c-.18,0-.36-.09-.36-.27s.22-.35.72-.35c2,0,4.79.13,5,.13s3.47-.13,4.79-.13c.5,0,.72.09.72.35s-.18.27-.36.27a9.87,9.87,0,0,0-1.43.13c-1.28.23-1.64,1-1.73,2.53s-.09,2.66-.09,9.59Z"/><path class="cls-1" d="M84.58,73.43a14.52,14.52,0,0,1,9.1-2.85,26.23,26.23,0,0,1,6,.8,2.72,2.72,0,0,0,.94.14c0,.77.2,2.9.47,5a.71.71,0,0,1-.91.07c-.5-2.29-2-4.92-6.91-4.92-5.15,0-9.54,3.27-9.54,10.24s4.49,11,10,11a7.2,7.2,0,0,0,7-4.82.72.72,0,0,1,.87.14A12.46,12.46,0,0,1,100,92.78a7.84,7.84,0,0,0-1.17.34,19.68,19.68,0,0,1-5.33.77,14.81,14.81,0,0,1-8.37-2.26,10.87,10.87,0,0,1-4.78-9.28A11.18,11.18,0,0,1,84.58,73.43Z"/><path class="cls-1" d="M107.05,84.72c-.88,0-.91.07-.91.91,0,3.41,2,6.3,5.59,6.3a3.62,3.62,0,0,0,3.1-1.65.45.45,0,0,1,.58.27.32.32,0,0,1,0,.14,5.86,5.86,0,0,1-5.29,3.13,6,6,0,0,1-4.88-2.22,7.14,7.14,0,0,1-1.43-4.38c0-4.15,2.73-7.62,6.77-7.62,2.9,0,4.79,2,4.79,4a2.3,2.3,0,0,1-.13.87c-.11.21-.58.24-2,.24Zm2.09-1c2.49,0,3.24-.13,3.5-.34.11-.06.21-.2.21-.63,0-.95-.64-2.15-2.6-2.15s-3.71,1.82-3.74,2.94c0,.07,0,.17.23.17Z"/><path class="cls-1" d="M119,83.68c0-1.32,0-1.49-.91-2.09l-.3-.2a.46.46,0,0,1,0-.61,18.79,18.79,0,0,0,3.37-1.65.39.39,0,0,1,.37.24c0,.52-.07,1-.07,1.58a.36.36,0,0,0,.34.37h0a9.26,9.26,0,0,1,4.72-1.72c2.8,0,3.94,1.92,3.94,4.18v5.8c0,2.42.08,2.76,1.29,2.93l.71.1a.6.6,0,0,1-.05.84h0c-1-.07-2-.1-3.17-.1a30,30,0,0,0-3.13.1.58.58,0,0,1-.08-.83h0l.64-.1C128,92.3,128,92,128,89.58v-5c0-1.92-.88-3.34-3.17-3.34A3.62,3.62,0,0,0,122,82.42a2.86,2.86,0,0,0-.51,2V89.6c0,2.42.07,2.72,1.28,2.93l.6.1a.6.6,0,0,1,0,.84h0c-.91-.07-1.89-.1-3.07-.1a30.81,30.81,0,0,0-3.16.1.58.58,0,0,1-.08-.83h0l.72-.1C119,92.36,119,92,119,89.6Z"/><path class="cls-1" d="M138.57,81.49c-.58,0-.61.1-.61.8V88.6c0,2,.23,3.74,2.46,3.74a2.58,2.58,0,0,0,.91-.17c.31-.1.71-.47.84-.47s.41.37.34.57a4.62,4.62,0,0,1-3.57,1.55c-2.89,0-3.5-1.62-3.5-3.64V82.46c0-.9,0-1-.72-1h-.94a.56.56,0,0,1-.1-.72,6.86,6.86,0,0,0,2.14-1,8.53,8.53,0,0,0,1.43-2,.65.65,0,0,1,.72.17v1.51c0,.61,0,.64.6.64h3.74a1.08,1.08,0,0,1,0,1.43Z"/><path class="cls-1" d="M146.93,84.72c-.88,0-.92.07-.92.91,0,3.41,2,6.3,5.6,6.3a3.62,3.62,0,0,0,3.1-1.65.46.46,0,0,1,.58.27l0,.14a5.91,5.91,0,0,1-5.3,3.13,6,6,0,0,1-4.88-2.22,7.14,7.14,0,0,1-1.43-4.38c0-4.15,2.74-7.62,6.78-7.62,2.9,0,4.78,2,4.78,4a2,2,0,0,1-.13.87c-.1.21-.57.24-2,.24Zm2.08-1c2.5,0,3.24-.13,3.51-.34.1-.06.2-.2.2-.63,0-.95-.64-2.15-2.6-2.15s-3.7,1.82-3.74,2.94c0,.07,0,.17.24.17Z"/><path class="cls-1" d="M158.87,83.68c0-1.32,0-1.49-.91-2.09l-.3-.2a.45.45,0,0,1,0-.61,26.65,26.65,0,0,0,3.4-1.65.24.24,0,0,1,.27.24v1.95c0,.16,0,.26.1.3,1.18-1,2.46-2,3.71-2a1.42,1.42,0,0,1,1.51,1.34h0a1.5,1.5,0,0,1-1.42,1.55,1.32,1.32,0,0,1-.72-.24,2.73,2.73,0,0,0-1.48-.54,1.49,1.49,0,0,0-1.21.68,5.12,5.12,0,0,0-.44,2.59v4.59c0,2.42.07,2.85,1.35,2.93l1.21.1a.59.59,0,0,1-.06.84h0c-1.59-.07-2.57-.1-3.75-.1a29.22,29.22,0,0,0-3.1.1.59.59,0,0,1-.07-.83h0l.65-.1c1.24-.21,1.28-.51,1.28-2.93Z"/><path class="cls-1" d="M181.45,81.49c-.57,0-.57.07-.57,1V89.6c0,2.43.07,2.86,1.28,2.94l1.21.1a.59.59,0,0,1-.05.83h0c-1.52-.07-2.49-.1-3.68-.1s-2.22,0-3.23.1a.59.59,0,0,1-.07-.83h0l.78-.1c1.25-.17,1.28-.51,1.28-2.94V82.46c0-.9,0-1-.68-1h-1.19a.48.48,0,0,1-.1-.65l1.43-.71a.77.77,0,0,0,.51-.67,15.08,15.08,0,0,1,1-5.94,6.62,6.62,0,0,1,6.07-4.28c1.78,0,3.29.82,3.29,2a1.27,1.27,0,0,1-1.27,1.21,1,1,0,0,1-.81-.4,3.78,3.78,0,0,0-2.7-1.49,2.61,2.61,0,0,0-2.39,1.86,17.5,17.5,0,0,0-.71,5.71v1c0,.9,0,.94.57.94h3.84a1,1,0,0,1-.24,1.43Z"/><path class="cls-1" d="M199.91,86.58a6.89,6.89,0,0,1-7.14,7.24,6.66,6.66,0,0,1-6.91-6.41,4.68,4.68,0,0,1,0-.53,7.09,7.09,0,0,1,6.89-7.28H193a6.73,6.73,0,0,1,6.88,6.58C199.92,86.32,199.91,86.45,199.91,86.58Zm-7.25-6c-2.22,0-3.87,2.14-3.87,5.83,0,3.07,1.37,6.37,4.34,6.37S197,89.71,197,87.1c0-2.85-1.15-6.49-4.35-6.49Z"/><path class="cls-1" d="M203.74,83.68c0-1.32,0-1.49-.92-2.09l-.3-.2a.47.47,0,0,1,0-.61,26.78,26.78,0,0,0,3.41-1.65.24.24,0,0,1,.27.24v1.95c0,.17,0,.27.1.3,1.18-1,2.46-2,3.71-2a1.44,1.44,0,0,1,1.52,1.33v0a1.51,1.51,0,0,1-1.43,1.55,1.32,1.32,0,0,1-.72-.24,2.73,2.73,0,0,0-1.48-.54,1.52,1.52,0,0,0-1.21.68,5.12,5.12,0,0,0-.44,2.59v4.59c0,2.42.06,2.85,1.35,2.93l1.21.1a.59.59,0,0,1-.06.84h0c-1.58-.07-2.55-.1-3.74-.1a29.12,29.12,0,0,0-3.1.1.59.59,0,0,1-.07-.83h0l.63-.1c1.25-.21,1.29-.51,1.29-2.93Z"/><path class="cls-1" d="M232.45,88.3c0,3.57.07,4,2,4.21l1.08.1c.21.14.14.71-.06.84-1.92-.07-3.07-.1-4.41-.1s-2.54,0-4.7.1a.6.6,0,0,1,0-.84h0l1.22-.1c1.92-.17,2.09-.67,2.09-4.21V73.23c0-1,0-1.08-1-1.08h-1.85c-1.43,0-3.31.07-4.15.84a6.1,6.1,0,0,0-1.51,2.33.65.65,0,0,1-.88-.24,34.23,34.23,0,0,0,1.27-5,.91.91,0,0,1,.65,0c.2,1.08,1.31,1,2.85,1h13.65c1.83,0,2.15-.07,2.63-.95a.76.76,0,0,1,.61.1,20.13,20.13,0,0,0-.51,5.13c-.13.27-.71.27-.87.06-.1-.84-.33-2.09-.84-2.46a6.78,6.78,0,0,0-3.91-.83h-2.4c-1,0-1,0-1,1.14Z"/><path class="cls-1" d="M243.26,84.72c-.88,0-.91.07-.91.91,0,3.43,2,6.29,5.57,6.29a3.64,3.64,0,0,0,3.1-1.65.44.44,0,0,1,.57.24.5.5,0,0,1,0,.16,5.88,5.88,0,0,1-5.29,3.14,6,6,0,0,1-4.88-2.23A7.12,7.12,0,0,1,240,87.2c0-4.14,2.74-7.61,6.78-7.61,2.9,0,4.79,2,4.79,4a2.15,2.15,0,0,1-.14.87c-.1.21-.57.24-2,.24Zm2.09-1c2.5,0,3.24-.13,3.51-.34.1-.06.2-.2.2-.63,0-.95-.64-2.15-2.6-2.15s-3.7,1.82-3.74,2.94c0,.07,0,.17.24.17Z"/><path class="cls-1" d="M260.43,86.38c.5-.17.57-.47.57-1V83.85c0-1.25-.37-2.94-2.46-2.94-.94,0-2.09.48-2.14,1.52,0,.54-.07.94-.34,1.15a3.57,3.57,0,0,1-1.92.63.41.41,0,0,1-.47-.36.17.17,0,0,1,0-.1c0-1.76,3.81-4.15,6.26-4.15s3.62,1.43,3.51,3.94l-.2,5.87c-.06,1.54.24,2.93,1.55,2.93a1.89,1.89,0,0,0,.84-.2c.17-.1.34-.24.44-.24s.24.2.24.44a3.55,3.55,0,0,1-2.86,1.48,2.69,2.69,0,0,1-2.19-1c-.13-.2-.33-.47-.53-.47a5.16,5.16,0,0,0-1.32.68,4.92,4.92,0,0,1-2.42.84,3.51,3.51,0,0,1-2.37-.77,3.21,3.21,0,0,1-1-2.36c0-1.31.64-2.09,2.8-2.86Zm-2.1,5.92a3.77,3.77,0,0,0,2.06-.84c.4-.4.4-.87.44-1.59l.07-2c0-.37-.14-.44-.34-.44a5.81,5.81,0,0,0-1.38.34c-2,.67-3,1.18-3,2.49a2,2,0,0,0,2,2Z"/><path class="cls-1" d="M278.35,80.17a1.89,1.89,0,0,1,.51,1.35c0,.61-.33,1.25-.71,1.25a.6.6,0,0,1-.47-.23,4.59,4.59,0,0,0-3.37-1.8c-2.36,0-4.65,1.86-4.65,5.43a5.53,5.53,0,0,0,5.42,5.76,4.13,4.13,0,0,0,3.75-2,.54.54,0,0,1,.6.47h0a6.12,6.12,0,0,1-5.63,3.44,6.45,6.45,0,0,1-4.61-1.72,6.71,6.71,0,0,1-2-5c0-3.64,2.56-7.51,8.15-7.51A8.35,8.35,0,0,1,278.35,80.17Z"/><path class="cls-1" d="M282.54,74.34c0-2,0-2.19-1-2.8l-.35-.2a.53.53,0,0,1,0-.67,23.71,23.71,0,0,0,3.64-1.43.37.37,0,0,1,.34.21c0,1-.1,2.7-.1,4.17V80.7c0,.31,0,.58.14.64a7.7,7.7,0,0,1,4.54-1.75c3.21,0,4.35,2,4.35,4.35v5.63c0,2.43.07,2.8,1.29,2.93l.9.1a.6.6,0,0,1-.05.84h0c-1.21-.07-2.19-.1-3.37-.1a29.91,29.91,0,0,0-3.13.1.58.58,0,0,1-.08-.83h0l.72-.1c1.24-.2,1.28-.5,1.28-2.93V84.78c0-2.14-1.05-3.61-3.2-3.61a4.15,4.15,0,0,0-2.64.91c-.6.51-.71.68-.71,1.85V89.6c0,2.42.07,2.76,1.28,2.93l.71.1c.24.14.16.71-.07.84-1-.07-2-.1-3.16-.1s-2.23,0-3.31.1a.59.59,0,0,1-.08-.83h0l.85-.1c1.24-.13,1.28-.51,1.28-2.93Z"/><path class="cls-1" d="M300.49,83.68c0-1.32,0-1.49-.9-2.09l-.31-.2a.46.46,0,0,1,0-.61,24.5,24.5,0,0,0,3.47-1.65c.17,0,.3.06.33.2-.06,1.18-.13,2.8-.13,4.18v6.07c0,2.42.07,2.76,1.28,2.93l.72.1a.59.59,0,0,1-.06.83h0c-1-.07-2-.1-3.16-.1a31.11,31.11,0,0,0-3.17.1.59.59,0,0,1-.08-.83h0l.71-.1c1.25-.17,1.28-.51,1.28-2.93Zm2.8-9.61a1.75,1.75,0,1,1-1.83-1.76h.15A1.69,1.69,0,0,1,303.3,74S303.29,74,303.29,74.07Z"/><path class="cls-1" d="M309.32,83.68c0-1.32,0-1.49-.91-2.09l-.3-.2a.47.47,0,0,1,0-.61,19.47,19.47,0,0,0,3.37-1.65.39.39,0,0,1,.37.24c-.07.77-.07,1.27-.07,1.58a.36.36,0,0,0,.34.37h0a9.26,9.26,0,0,1,4.72-1.72c2.8,0,3.94,1.92,3.94,4.18v5.8c0,2.42.08,2.76,1.29,2.93l.71.1a.59.59,0,0,1,0,.83h0c-1-.07-2-.1-3.17-.1a30.3,30.3,0,0,0-3.14.1.59.59,0,0,1-.07-.83h0l.64-.1c1.25-.21,1.28-.51,1.28-2.93v-5c0-1.92-.88-3.34-3.17-3.34a3.62,3.62,0,0,0-2.85,1.18,2.75,2.75,0,0,0-.51,2V89.6c0,2.42.06,2.72,1.28,2.93l.6.1a.6.6,0,0,1,0,.84h0c-.91-.07-1.89-.1-3.07-.1a30.81,30.81,0,0,0-3.16.1.58.58,0,0,1-.08-.83h0l.72-.1c1.25-.17,1.28-.51,1.28-2.93Z"/><path class="cls-1" d="M338.69,80.81c.37.17.3,1.32-.2,1.38h-2.43a16.48,16.48,0,0,1,.06,1.72c0,2.33-1.38,5.37-5.66,5.37a14.73,14.73,0,0,1-1.48-.11c-.4.24-1.48.88-1.48,1.85,0,.78.78,1.43,2.35,1.43,1.15,0,2.53-.1,4-.1,1.88,0,4.72.34,4.72,3.71,0,3.67-4,6.37-8.4,6.37-4.14,0-5.59-2.22-5.59-3.91a1.87,1.87,0,0,1,.37-1.25c.57-.61,1.51-1.48,2.29-2.25.3-.3.57-.61.27-.81a3.13,3.13,0,0,1-2.46-2.66c0-.18.14-.31.51-.58a10.48,10.48,0,0,0,1.78-1.54,1.51,1.51,0,0,0,.34-.65,4.57,4.57,0,0,1-2.53-4.07,5.26,5.26,0,0,1,5.5-5.09,8.16,8.16,0,0,1,3.23.67,4.14,4.14,0,0,0,2.06.54Zm-7,13.62a7.41,7.41,0,0,0-2.91.37,3.45,3.45,0,0,0-1.61,2.86c0,1.82,1.42,3.34,4.52,3.34s5-1.69,5-3.61-1.42-2.93-3.84-2.93Zm2.08-9.64c0-2.29-.94-4.21-3-4.21-1.61,0-2.85,1.48-2.85,3.77s1.42,4,3.07,4c1.84,0,2.78-1.45,2.78-3.52Z"/><path class="cls-1" d="M355.1,86.38c.51-.17.58-.47.58-1V83.85c0-1.25-.37-2.94-2.46-2.94-.94,0-2.09.48-2.14,1.52,0,.54-.07.94-.34,1.15a3.6,3.6,0,0,1-1.92.63.43.43,0,0,1-.47-.37v-.09c0-1.76,3.81-4.15,6.26-4.15s3.62,1.43,3.51,3.94l-.2,5.87c-.07,1.54.24,2.93,1.55,2.93a1.89,1.89,0,0,0,.84-.2c.17-.1.34-.24.44-.24s.23.2.23.44a3.51,3.51,0,0,1-2.85,1.48,2.7,2.7,0,0,1-2.2-1c-.13-.2-.33-.47-.54-.47a5.82,5.82,0,0,0-1.31.68,4.92,4.92,0,0,1-2.42.84,3.51,3.51,0,0,1-2.37-.77,3.21,3.21,0,0,1-1-2.36c0-1.31.65-2.09,2.8-2.86ZM353,92.3a3.77,3.77,0,0,0,2.06-.84c.4-.4.4-.87.44-1.59l.06-2c0-.37-.13-.44-.33-.44a5.81,5.81,0,0,0-1.38.34c-2,.67-3,1.18-3,2.49a2,2,0,0,0,2,2Z"/><path class="cls-1" d="M364.69,83.68c0-1.32,0-1.49-.91-2.09l-.31-.2a.47.47,0,0,1,0-.61,18.79,18.79,0,0,0,3.37-1.65.42.42,0,0,1,.38.24c-.05.52-.08,1-.08,1.58a.37.37,0,0,0,.35.37h0a9.22,9.22,0,0,1,4.72-1.72c2.79,0,3.94,1.92,3.94,4.18v5.8c0,2.42.07,2.76,1.28,2.93l.72.1a.6.6,0,0,1-.07.84h0c-1-.07-2-.1-3.16-.1a30.21,30.21,0,0,0-3.14.1.59.59,0,0,1-.06-.84l.64-.1c1.24-.21,1.28-.51,1.28-2.93v-5c0-1.92-.88-3.34-3.17-3.34a3.66,3.66,0,0,0-2.85,1.18,2.86,2.86,0,0,0-.51,2V89.6c0,2.42.07,2.72,1.29,2.93l.6.1a.59.59,0,0,1-.06.84h0c-.91-.07-1.88-.1-3.06-.1a31.11,31.11,0,0,0-3.17.1.59.59,0,0,1-.07-.83h0l.72-.1c1.24-.17,1.28-.51,1.28-2.93Z"/><path class="cls-1" d="M392.8,88.43c0,2.66,0,3.91,1,3.91A5.85,5.85,0,0,0,395.2,92c.23.07.26.92,0,1.08a24.47,24.47,0,0,0-4.45,1.08c-.2,0-.37-.1-.37-.27v-.55a3.32,3.32,0,0,0-.07-1h-.14a7,7,0,0,1-4.24,1.55,6.2,6.2,0,0,1-6.24-6.47c0-4.72,3.57-7.75,8.16-7.75a6.93,6.93,0,0,1,2.26.3c.16,0,.2-.2.2-.47V74.37c0-2,0-2.19-1-2.8l-.35-.2a.53.53,0,0,1,0-.67,23.82,23.82,0,0,0,3.65-1.43.39.39,0,0,1,.34.21c0,1-.1,2.7-.1,4.17Zm-2.5-5.06a2,2,0,0,0-.37-1.31,3.51,3.51,0,0,0-2.86-1.43c-3.07,0-4.65,2.66-4.65,5.6s1.72,6,5,6a4.16,4.16,0,0,0,2.6-.94,2.1,2.1,0,0,0,.23-1.25Z"/><path class="cls-1" d="M408.41,76.16c0-3.57-.08-4.08-2.2-4.24l-.84-.07c-.21-.14-.14-.72.06-.85,1.9.08,3,.1,4.39.1s2.45,0,4.15-.1c.2.1.26.72.06.85l-.81.07c-2,.16-2.05.71-2.05,4.24V87.89c0,2.14.1,3,.71,3.64.37.37,1,.77,3.67.77,2.86,0,3.57-.13,4.11-.43a6.87,6.87,0,0,0,2.23-3.34c.2-.17.84,0,.84.2a25.68,25.68,0,0,1-1.42,4.72c-1.72-.07-4.92-.1-8.39-.1h-3.1c-1.43,0-2.49,0-4.39.1a.65.65,0,0,1-.06-.84l1-.1c1.95-.21,2-.67,2-4.21Z"/><path class="cls-1" d="M427.78,84.72c-.88,0-.92.07-.92.91,0,3.41,2,6.3,5.6,6.3a3.62,3.62,0,0,0,3.1-1.65.46.46,0,0,1,.58.27.59.59,0,0,1,0,.14,5.88,5.88,0,0,1-5.29,3.13A6,6,0,0,1,426,91.6a7.19,7.19,0,0,1-1.42-4.38c0-4.15,2.73-7.62,6.77-7.62,2.9,0,4.78,2,4.78,4a2,2,0,0,1-.13.87c-.1.21-.57.24-2,.24Zm2.08-1c2.5,0,3.24-.13,3.51-.34.1-.06.2-.2.2-.63,0-.95-.64-2.15-2.6-2.15s-3.7,1.82-3.74,2.94c0,.07,0,.17.24.17Z"/><path class="cls-1" d="M444.93,86.38c.51-.17.58-.47.58-1V83.85c0-1.25-.37-2.94-2.46-2.94-.94,0-2.09.48-2.14,1.52,0,.54-.07.94-.34,1.15a3.57,3.57,0,0,1-1.92.63.42.42,0,0,1-.47-.36.17.17,0,0,1,0-.1c0-1.76,3.81-4.15,6.27-4.15s3.6,1.43,3.5,3.94l-.2,5.87c-.07,1.54.24,2.93,1.55,2.93a1.89,1.89,0,0,0,.84-.2c.18-.1.34-.24.44-.24s.24.2.24.44A3.53,3.53,0,0,1,448,93.82a2.67,2.67,0,0,1-2.19-1c-.14-.2-.34-.47-.55-.47a5.63,5.63,0,0,0-1.31.68,4.92,4.92,0,0,1-2.43.84,3.45,3.45,0,0,1-2.35-.77,3.13,3.13,0,0,1-1.05-2.36c0-1.31.65-2.09,2.8-2.86Zm-2.09,5.92a3.73,3.73,0,0,0,2.06-.84c.4-.4.4-.87.44-1.59l.06-2c0-.37-.13-.44-.33-.44a6,6,0,0,0-1.39.34c-2,.67-3,1.18-3,2.49a2,2,0,0,0,2,2h.09Z"/><path class="cls-1" d="M454.48,83.68c0-1.32,0-1.49-.9-2.09l-.31-.2a.47.47,0,0,1,0-.61,27.44,27.44,0,0,0,3.41-1.65.24.24,0,0,1,.26.24v1.95c0,.17,0,.27.1.3,1.19-1,2.46-2,3.71-2a1.43,1.43,0,0,1,1.52,1.34h0a1.5,1.5,0,0,1-1.43,1.55,1.26,1.26,0,0,1-.71-.24,2.76,2.76,0,0,0-1.49-.54,1.52,1.52,0,0,0-1.21.68A5.12,5.12,0,0,0,457,85v4.59c0,2.42.07,2.85,1.35,2.93l1.21.1a.59.59,0,0,1-.06.84c-1.59-.07-2.56-.1-3.74-.1a29.32,29.32,0,0,0-3.11.1.59.59,0,0,1-.07-.83h0l.64-.1c1.24-.21,1.28-.51,1.28-2.93Z"/><path class="cls-1" d="M465.73,83.68c0-1.32,0-1.49-.91-2.09l-.3-.2a.47.47,0,0,1,0-.61,19.47,19.47,0,0,0,3.37-1.65.38.38,0,0,1,.37.24c-.07.77-.07,1.27-.07,1.58a.37.37,0,0,0,.35.37h0a9.26,9.26,0,0,1,4.72-1.72c2.8,0,4,1.92,4,4.18v5.8c0,2.42.07,2.76,1.27,2.93l.72.1a.6.6,0,0,1-.06.84h0c-1-.07-2-.1-3.17-.1a30,30,0,0,0-3.13.1.59.59,0,0,1,0-.82l.64-.1c1.25-.21,1.29-.51,1.29-2.93v-5c0-1.92-.88-3.34-3.17-3.34a3.71,3.71,0,0,0-2.86,1.18,2.9,2.9,0,0,0-.5,2v5.16c0,2.43.07,2.73,1.28,2.93l.61.1a.6.6,0,0,1-.06.84h0c-.91-.07-1.89-.1-3.07-.1a31.21,31.21,0,0,0-3.17.1.59.59,0,0,1-.07-.83h0l.71-.1c1.25-.17,1.29-.5,1.29-2.93Z"/><path class="cls-1" d="M483.59,83.68c0-1.32,0-1.49-.9-2.09l-.31-.2a.46.46,0,0,1,0-.61,24.5,24.5,0,0,0,3.47-1.65c.17,0,.3.06.34.2-.07,1.18-.14,2.8-.14,4.18v6.07c0,2.42.07,2.76,1.28,2.93l.71.1a.59.59,0,0,1-.05.83h0c-1-.07-2-.1-3.16-.1a31.11,31.11,0,0,0-3.17.1.59.59,0,0,1-.07-.83h0l.71-.1c1.24-.17,1.28-.51,1.28-2.93Zm2.8-9.61a1.76,1.76,0,1,1-1.84-1.76h.15A1.69,1.69,0,0,1,486.39,74Z"/><path class="cls-1" d="M492.4,83.68c0-1.32,0-1.49-.92-2.09l-.3-.2a.47.47,0,0,1,0-.61,18.79,18.79,0,0,0,3.37-1.65.39.39,0,0,1,.37.24c-.05.52-.07,1-.07,1.58a.37.37,0,0,0,.35.37h0a9.26,9.26,0,0,1,4.72-1.72c2.8,0,3.94,1.92,3.94,4.18v5.8c0,2.42.08,2.76,1.29,2.93l.71.1a.59.59,0,0,1-.06.84h0c-1-.07-2-.1-3.16-.1a30.21,30.21,0,0,0-3.14.1.6.6,0,0,1-.07-.84l.65-.1c1.24-.21,1.27-.51,1.27-2.93v-5c0-1.92-.87-3.34-3.17-3.34a3.62,3.62,0,0,0-2.85,1.18,2.86,2.86,0,0,0-.51,2V89.6c0,2.42.07,2.72,1.29,2.93l.6.1a.59.59,0,0,1-.06.84h0c-.9-.07-1.88-.1-3.07-.1a30.9,30.9,0,0,0-3.16.1.6.6,0,0,1-.07-.84l.71-.1c1.24-.17,1.28-.51,1.28-2.93Z"/><path class="cls-1" d="M521.78,80.81c.38.17.31,1.32-.2,1.38h-2.42a16.48,16.48,0,0,1,.06,1.72c0,2.33-1.38,5.37-5.66,5.37-.49,0-1,0-1.48-.11-.41.24-1.48.88-1.48,1.85,0,.78.77,1.43,2.36,1.43,1.14,0,2.52-.1,4-.1,1.9,0,4.72.34,4.72,3.71,0,3.67-4,6.37-8.38,6.37-4.15,0-5.6-2.22-5.6-3.91a1.87,1.87,0,0,1,.37-1.25c.57-.61,1.51-1.48,2.29-2.25.31-.3.57-.61.27-.81a3.15,3.15,0,0,1-2.46-2.66c0-.18.13-.31.51-.58a10.48,10.48,0,0,0,1.78-1.54,1.36,1.36,0,0,0,.34-.65,4.57,4.57,0,0,1-2.53-4.07,5.27,5.27,0,0,1,5.5-5.09,8.16,8.16,0,0,1,3.23.67,4.14,4.14,0,0,0,2.06.54Zm-7,13.62a7.27,7.27,0,0,0-2.89.37,3.47,3.47,0,0,0-1.63,2.86c0,1.82,1.43,3.34,4.52,3.34s5-1.69,5-3.61-1.43-2.93-3.85-2.93Zm2.09-9.64c0-2.29-.94-4.21-3-4.21-1.62,0-2.86,1.48-2.86,3.77s1.43,4,3.07,4c1.85,0,2.79-1.45,2.79-3.52Z"/><rect class="cls-1" x="15.39" y="49.96" width="42.49" height="3.5"/><path class="cls-1" d="M63.16,21.1c-4.55-4.44-12.53-1.66-21.59,1.23A1.56,1.56,0,0,1,40.08,22a10.35,10.35,0,0,0-1.23-.85,4.34,4.34,0,0,0-1.55-8L38.89,11a.65.65,0,0,0,0-.75l-2-2.56a.34.34,0,0,0-.47-.11.29.29,0,0,0-.11.11l-2,2.56a.65.65,0,0,0,0,.75L36,13.1a4.34,4.34,0,0,0-3.6,5,4.29,4.29,0,0,0,2.09,3.06,10.35,10.35,0,0,0-1.23.85,1.56,1.56,0,0,1-1.49.35c-9-2.89-17-5.71-21.58-1.23C4.7,26.45,11,35.07,13,38.62a16.71,16.71,0,0,1,2.39,7.7h42.5a17,17,0,0,1,2.38-7.7C62.28,35.07,68.6,26.45,63.16,21.1Zm-33,22.27c-1.65.1-3-1.43-3.53-3.49L28,36.73a.78.78,0,0,0-.18-.9l-4.28-4.29c-.24-.24-.46-.25-.58,0l-2,4.29a.81.81,0,0,0,.23.9L24.37,40c.67,2.52-1.05,3.45-2,3.45C19,43.4,16.26,38.8,13.5,34s-3.68-8.11-1.63-10.71c3.42-4.32,12.4-.9,19.38,2.28A7.63,7.63,0,0,0,32,29.17C35.7,37.35,33.22,43.16,30.16,43.37ZM59.79,34c-2.77,4.77-5.48,9.38-8.86,9.38-1,0-2.69-.93-2-3.46l3.19-3.22a.82.82,0,0,0,.23-.9l-2-4.28c-.11-.25-.33-.24-.57,0l-4.29,4.28a.8.8,0,0,0-.18.9l1.35,3.16c-.52,2.08-1.88,3.57-3.52,3.49-3.06-.21-5.54-6-1.86-14.22A7.51,7.51,0,0,0,42,25.57c7-3.18,16-6.6,19.38-2.28,2.07,2.63,1.12,6.05-1.6,10.73Z"/></svg>