<svg xmlns="http://www.w3.org/2000/svg" viewBox="0 0 1250 400"><defs><style>.cls-1{fill:#75aadb;}.cls-2{fill:#fff;}</style></defs><g id="Layer_3" data-name="Layer 3"><path class="cls-1" d="M732.53,106.12c11.16,9.7,13.37,22,10.74,35.75.15-.15.32-.3.46-.46q14.53-18,29.06-35.9a2.55,2.55,0,0,0,.58-1c1.42-6.88,1.63-13.75-.5-20.55A25.11,25.11,0,0,0,766,73c-.49-.46-.76-.39-1.19,0-4.91,4.93-9.87,9.81-14.74,14.78C744.65,93.39,739.3,99,733.92,104.6,733.46,105.08,733,105.59,732.53,106.12Z"/><path class="cls-1" d="M739.74,144.07a6.35,6.35,0,0,0,.69-1.54c1.22-10.42-.69-20.14-6.65-28.91a29,29,0,0,0-7-7.44c-.37-.27-.72-.57-1.08-.86,0,0,0-.11-.17-.32l25.23-26.2-2.79-2.59c-1.15-1-1.2-1.11-2.36,0-4.69,4.32-9.44,8.57-14,13-5.58,5.52-11,11.23-16.44,16.85-.19.19-.36.4-.63.71.79.64,1.57,1.23,2.3,1.87a79.72,79.72,0,0,1,17.59,20.82,38.06,38.06,0,0,1,4.85,13.41,4.43,4.43,0,0,0,.17.72A2.79,2.79,0,0,0,739.74,144.07Z"/><path class="cls-1" d="M735.33,146.49a16.75,16.75,0,0,0-.29-6.07,32.1,32.1,0,0,0-5.74-12,74.19,74.19,0,0,0-16.94-16.19c-1.69-1.22-3.44-2.33-5.39-3.64l27-27.47c-.65-.63-1.32-1.33-2.06-2-.13-.11-.62,0-.82.22-2.81,2.55-5.6,5.13-8.39,7.71-8.68,8-16.82,16.54-25,25-.25.26-.48.54-.8.91.37.17.66.32,1,.44,9.19,4,17.91,8.87,25.59,15.39a59.58,59.58,0,0,1,6.7,6.78A21.37,21.37,0,0,1,735.33,146.49Z"/></g><g id="Layer_1" data-name="Layer 1"><rect class="cls-1" x="18.55" y="17.5" width="365" height="365"/><path class="cls-2" d="M69.71,243.08c-14.71-13.2-18.35-30.49-18.35-44.9,0-10.17,3.49-27.91,17-41.41,9.1-9.1,22.9-16.23,46.26-16.23a129.61,129.61,0,0,1,22,1.82,133.26,133.26,0,0,0,15.47,2.28c1.67.14,2,.75,2,1.66,0,1.21-.45,3-.76,8.5-.3,5-.3,13.34-.45,15.62s-.46,3.18-1.37,3.18c-1.07,0-1.21-1.06-1.21-3.18,0-5.91-2.43-12.13-6.37-15.47-5.32-4.56-17-8.65-30.35-8.65-20.16,0-29.57,5.92-34.88,11.08C67.59,168,65,181.49,65,197c0,29,22.29,55.52,54.77,55.52,11.36,0,20.32-1.37,26.38-7.58,3.19-3.34,5.16-10,5.62-12.75.3-1.66.6-2.27,1.51-2.27s1.06,1.06,1.06,2.27c0,1.06-1.82,14.26-3.33,19.42-.92,2.88-1.22,3.19-4,4.4-6.06,2.43-17.59,3.49-27.29,3.49C97,259.46,81.69,253.85,69.71,243.08Z"/><path class="cls-2" d="M222.35,213.34c0,14.56,0,26.55.77,32.92.45,4.4,1.36,7.74,5.91,8.35a66.52,66.52,0,0,0,6.83.6c.91,0,1.21.46,1.21.91,0,.76-.76,1.21-2.44,1.21-8.33,0-17.89-.45-18.65-.45s-10.31.45-14.86.45c-1.67,0-2.43-.3-2.43-1.21,0-.45.31-.91,1.22-.91a23.56,23.56,0,0,0,4.54-.6c3-.61,3.8-4,4.4-8.35.76-6.37.76-18.36.76-32.92V149.18l-22.44.31c-9.41.15-13,1.21-15.47,4.85a26.67,26.67,0,0,0-2.59,4.7c-.44,1.22-.91,1.52-1.52,1.52-.45,0-.75-.46-.75-1.36,0-1.52,3-14.56,3.33-15.78.3-.91.91-2.88,1.53-2.88,1.06,0,2.57,1.52,6.67,1.82,4.4.45,10.16.76,12,.76h56.88a61.15,61.15,0,0,0,10.77-.76c2.28-.3,3.64-.76,4.25-.76s.76.91.76,1.82c0,4.55-.46,15-.46,16.68,0,1.37-.45,2-1.06,2-.77,0-1.06-.46-1.21-2.58l-.15-1.67c-.47-4.56-4.1-8-18.66-8.34l-19.12-.31Z"/><path class="cls-2" d="M304.62,213.65c0,22.3.61,32,3.35,34.73,2.42,2.44,6.36,3.49,18.19,3.49,8,0,14.72-.15,18.35-4.55a20.92,20.92,0,0,0,3.95-9.1c.15-1.21.46-2,1.37-2s.91.61.91,2.27a96.27,96.27,0,0,1-2.28,15.18c-1.06,3.48-1.51,4.09-9.56,4.09-10.92,0-18.8-.31-25.17-.46s-11.07-.45-15.47-.45c-.61,0-3.19.15-6.22.15-3,.15-6.37.3-8.65.3-1.66,0-2.42-.3-2.42-1.21,0-.45.3-.91,1.21-.91a23.76,23.76,0,0,0,4.55-.6c3-.61,3.8-4,4.39-8.35.76-6.37.76-18.36.76-32.92V186.65c0-23.67,0-27.91-.29-32.76-.32-5.16-1.53-7.59-6.53-8.65a28.6,28.6,0,0,0-5.15-.46c-.62,0-1.23-.3-1.23-.9,0-.91.77-1.22,2.44-1.22,6.82,0,16.38.46,17.14.46s11.83-.46,16.37-.46c1.67,0,2.43.31,2.43,1.22,0,.6-.61.9-1.21.9a36.09,36.09,0,0,0-5,.46c-4.4.76-5.62,3.34-5.92,8.65-.31,4.85-.31,9.09-.31,32.76Z"/><path d="M400.79,317.12V141.48h37.1q28.49,0,44.36,15.42T498.12,200q0,26.17-14.94,43t-38.07,16.82q-10.23,0-22.66-4.93v62.21ZM437.43,163h-15v71.58A41.45,41.45,0,0,0,442.89,240a30.35,30.35,0,0,0,24.34-11.26q9.47-11.25,9.47-29a43.32,43.32,0,0,0-4.48-20.1A28.17,28.17,0,0,0,460,167Q452.31,163,437.43,163Z"/><path d="M572.63,141.22q24.45,0,40.63,17.14t16.18,43.06q0,25.16-16.42,41.79T571.7,259.84q-24.11,0-40.29-16.88t-16.18-42.18q0-25.53,16.36-42.55T572.63,141.22ZM571.46,162q-15.26,0-25,10.88t-9.78,27.69q0,16.69,10,27.25t25.72,10.56q15.6,0,25.56-10.68t9.95-27.38q0-16.58-10.36-27.44T571.46,162Z"/><path d="M675.66,141.48v26.68l1.16-2q15.38-26.92,30.74-26.93,12,0,25,13.15l-11.18,20.23q-11.05-11.37-20.49-11.38-10.24,0-17.75,10.63T675.66,197v60.83H654.35V141.48Z"/><path d="M737.13,159.94l39.81-42.49v24h33.88v20.73H776.94v56.94q0,19.95,15.25,19.95,11.41,0,24.1-8.22v21.5a50.24,50.24,0,0,1-26.66,7.46q-14.55,0-24.21-9.23a25.85,25.85,0,0,1-5-6.26,35.16,35.16,0,0,1-3.32-9.11q-1.33-5.62-1.34-21.43v-51.6H737.13Z"/><path d="M834,141.48v-7q0-28.08,11-41.86t26.37-13.78a65.88,65.88,0,0,1,15.71,2.28v22.5a26.74,26.74,0,0,0-9.77-2q-12.46,0-17.29,7.21t-4.83,25.67v7h19.09v20.73H855.18v95.61H834V162.21H818.62V141.48Z"/><path d="M940.05,141.22q24.44,0,40.63,17.14t16.18,43.06q0,25.16-16.42,41.79t-41.33,16.63q-24.09,0-40.28-16.88t-16.18-42.18q0-25.53,16.36-42.55T940.05,141.22ZM938.88,162q-15.25,0-25,10.88t-9.78,27.69q0,16.69,10,27.25t25.73,10.56q15.6,0,25.56-10.68t10-27.38q0-16.58-10.36-27.44T938.88,162Z"/><path d="M1020.84,81.16H1042V257.82h-21.19Z"/><path d="M1083.59,92.54a11.89,11.89,0,0,1,9,3.92,13.39,13.39,0,0,1,3.73,9.61,13.69,13.69,0,0,1-3.73,9.61,11.73,11.73,0,0,1-9,4,11.3,11.3,0,0,1-8.61-4.1,13.77,13.77,0,0,1-3.73-9.55,13.6,13.6,0,0,1,3.73-9.42A11.32,11.32,0,0,1,1083.59,92.54Zm-10.48,48.94h21.19V257.82h-21.19Z"/><path d="M1176.14,141.22q24.45,0,40.63,17.14T1233,201.42q0,25.16-16.42,41.79t-41.33,16.63q-24.09,0-40.28-16.88t-16.18-42.18q0-25.53,16.36-42.55T1176.14,141.22ZM1175,162q-15.26,0-25,10.88t-9.78,27.69q0,16.69,10,27.25t25.73,10.56q15.6,0,25.55-10.68t10-27.38q0-16.58-10.36-27.44T1175,162Z"/></g></svg>